<?xml version="1.0" encoding="UTF-8"?>
<svg width="16px" height="16px" viewBox="0 0 16 16" version="1.1" xmlns="http://www.w3.org/2000/svg" xmlns:xlink="http://www.w3.org/1999/xlink">
    <title>Icons / Setting / Assistant</title>
    <g id="Icons-/-Setting-/-Assistant" stroke="none" stroke-width="1" fill="none" fill-rule="evenodd">
        <g transform="translate(2.000000, 1.000000)">
            <g id="Group" opacity="0.56" transform="translate(5.000000, 9.000000)"></g>
            <path d="M5.999964,8.68819716 L6.00538797,8.68819716 C6.2991942,8.68820716 6.665912,8.68820716 7.19159285,8.60558945 C7.7003538,8.52562167 8.32555005,8.37413586 9.19267684,8.10158341 C9.84151295,7.89764906 10.4488293,8 10.9462263,8.41539472 C11.4852631,8.86546225 11.99994,9.78551676 11.99994,11.3440736 C11.99994,12.2621481 11.7531015,12.9218299 11.3608238,13.3330185 C11.005386,13.7054082 10.4113895,14 9.32299606,14 L5.999964,14 L2.67684794,14 C1.58846647,14 0.994518033,13.7054082 0.639116165,13.3330185 C0.246718519,12.9218299 -6.00000003e-05,12.2621481 -6.00000003e-05,11.3440736 C-6.00000003e-05,9.78551676 0.514616912,8.86546225 1.05360568,8.41540472 C1.55105069,8 2.15843905,7.89764906 2.80721516,8.10158341 C3.67435395,8.37414586 4.2995622,8.52562167 4.80832315,8.60558945 C5.334004,8.68820716 5.7007218,8.68820716 5.99454003,8.68819716 L5.999964,8.68819716 Z" id="Path" stroke="#797B8F" stroke-width="2"></path>
            <path d="M8.12115,5.120955 L8.121,5.121045 C7.52745,5.714685 6.8385,6 6,6 C5.1621,6 4.473,5.7147 3.87915,5.121015 C3.2853,4.527375 3,3.83835 3,2.999865 C3,2.16168 3.2853,1.47261 3.879,0.878895 C4.4727,0.285285 5.1615,0 6,0 C6.83805,0 7.52715,0.285195 8.12085,0.87867 C8.7147,1.47267 9,2.161785 9,2.999865 C9,3.83844 8.7147,4.527345 8.12115,5.120955 Z" id="Path-Copy" stroke="#797B8F" stroke-width="2"></path>
        </g>
    </g>
</svg>