<svg xmlns="http://www.w3.org/2000/svg" width="23.409" height="23.409" viewBox="0 0 23.409 23.409">
  <path fill="none" stroke="rgb(102,104,127)" stroke-linecap="butt" stroke-linejoin="miter" stroke-width="2" d="M1.23957889 4.40740366c.22239-1.6984946 1.48275555-2.98249612 3.15626111-3.190886C5.38816778 1.09295217 6.59996889 1 8 1c1.47824444 0 2.74656667.10362328 3.76833333.23749431 1.5925.20864655 2.78553334 1.40166367 2.99413334 2.994155C14.8964 5.25339987 15 6.52176805 15 8.0000039c0 1.47824362-.1036 2.74656514-.23753333 3.76833124-.2086 1.59249911-1.40163334 2.78553178-2.99413334 2.99413167C10.74656667 14.89640006 9.47824444 15 8 15c-1.40003111 0-2.61183222-.0929444-3.60416-.21653321-1.67350556-.20836655-2.93387111-1.49239917-3.15626111-3.19090934C1.10417556 10.55850247 1 9.33008093 1 8.00000389c0-1.3301237.10417556-2.5585297.23957889-3.59260023z"/>
  <path fill="none" stroke="rgb(121,123,143)" stroke-linecap="round" stroke-linejoin="miter" stroke-width="2" d="M7 5l3 3"/>
  <path fill="none" stroke="rgb(121,123,143)" stroke-linecap="round" stroke-linejoin="miter" stroke-width="2" d="M10 8l-3 3"/>
</svg>
