<svg id="Icons_Calendar_Black" data-name="Icons / Calendar Black" xmlns="http://www.w3.org/2000/svg" width="20" height="20" viewBox="0 0 20 20">
  <g id="calendar" transform="translate(2 1)">
    <path id="Path" d="M2,0H2A2.648,2.648,0,0,0,.594,1.527,28.264,28.264,0,0,0,0,7.5a28.776,28.776,0,0,0,.528,5.656,2.3,2.3,0,0,0,1.816,1.816A28.774,28.774,0,0,0,8,15.5a28.773,28.773,0,0,0,5.656-.528,2.3,2.3,0,0,0,1.816-1.816A28.773,28.773,0,0,0,16,7.5a28.263,28.263,0,0,0-.594-5.973A2.118,2.118,0,0,0,14,0h0" transform="translate(0 1.5)" fill="none" stroke="#51a500" stroke-linecap="round" stroke-miterlimit="10" stroke-width="2"/>
    <path id="Path_Copy" data-name="Path Copy" d="M2,0A2.648,2.648,0,0,0,.594,1.527,28.264,28.264,0,0,0,0,7.5a28.776,28.776,0,0,0,.528,5.656,2.3,2.3,0,0,0,1.816,1.816A28.774,28.774,0,0,0,8,15.5a28.773,28.773,0,0,0,5.656-.528,2.3,2.3,0,0,0,1.816-1.816A28.773,28.773,0,0,0,16,7.5a28.263,28.263,0,0,0-.594-5.973A2.118,2.118,0,0,0,14,0Z" transform="translate(0 1.5)" fill="rgba(16,19,54,0.1)"/>
    <path id="Path-2" data-name="Path" d="M0,.5H14" transform="translate(1 6.5)" fill="none" stroke="#51a500" stroke-miterlimit="10" stroke-width="2"/>
    <path id="Path-3" data-name="Path" d="M.5,3V0" transform="translate(4.5)" fill="none" stroke="#51a500" stroke-linecap="round" stroke-miterlimit="10" stroke-width="2"/>
    <path id="Path-4" data-name="Path" d="M.5,3V0" transform="translate(10.5)" fill="none" stroke="#51a500" stroke-linecap="round" stroke-miterlimit="10" stroke-width="2"/>
  </g>
</svg>
