<?xml version="1.0" encoding="UTF-8"?>
<svg width="16px" height="16px" viewBox="0 0 16 16" version="1.1" xmlns="http://www.w3.org/2000/svg" xmlns:xlink="http://www.w3.org/1999/xlink">
    <title>Icons / Table / Copy</title>
    <g id="Icons-/-Table-/-Copy" stroke="none" stroke-width="1" fill="none" fill-rule="evenodd">
        <g id="Copy" transform="translate(1.000000, 1.000000)" stroke="#101336" stroke-width="2">
            <path d="M13.7461,12 C13.8892,10.9138 13.9998,9.5675 13.9998,8 C13.9998,5.81166 13.7843,4.05432 13.5655,2.83407 C13.3433,1.59481 12.405,0.65647 11.1657,0.43428 C9.9455,0.2155 8.1881,0 5.99978,0 C4.43244,0 3.08618,0.11055 2,0.25367" id="Path" stroke-linecap="round"></path>
            <path d="M0.2837,4.94233 C0.42359,4.05114 1.07494,3.39398 1.93323,3.2615 C2.83957,3.12162 4.04578,3 5.5,3 C7.0098,3 8.25227,3.13109 9.1694,3.27762 C9.9858,3.40806 10.5919,4.0142 10.7224,4.83064 C10.8689,5.74773 11,6.9902 11,8.5 C11,10.0098 10.8689,11.2523 10.7224,12.1694 C10.5919,12.9858 9.9858,13.5919 9.1694,13.7224 C8.25227,13.8689 7.0098,14 5.5,14 C4.04578,14 2.83957,13.8784 1.93323,13.7385 C1.07494,13.606 0.42359,12.9489 0.2837,12.0577 C0.13344,11.1005 0,9.8649 0,8.5 C0,7.13512 0.13344,5.89955 0.2837,4.94233 Z" id="Path" fill-opacity="0.1" fill="#4E5287" fill-rule="nonzero"></path>
        </g>
    </g>
</svg>