<svg id="Capa_1" enable-background="new 0 0 512 512" height="512" viewBox="0 0 512 512" width="512" xmlns="http://www.w3.org/2000/svg"><g><path d="m200.693 81.752c-6.14-2.032-12.892.101-16.751 5.291l-84.048 113.054c-25.458 33.941-38.914 74.365-38.914 116.903 0 107.77 87.215 195 195 195 96.259-.001 172.886-67.903 190.653-153.253 11.826-56.805-.438-113.13-34.538-158.612 0 0-50.633-68.503-50.654-68.531-23.804-31.735-25.001-75.251-2.98-108.283 3.068-4.603 3.354-10.521.744-15.398s-7.694-7.923-13.225-7.923c-57.897 0-105 47.552-105 106v30c0 8.271-6.729 15-15 15s-15-6.729-15-15v-40.007c0-6.468-4.146-12.208-10.287-14.241zm25.287 99.248c24.813 0 45-20.187 45-45v-30c0-32.481 20.21-60.268 48.559-71.124-12.681 36.935-7.686 80.579 17.867 114.682 0 0 50.64 68.513 50.661 68.541 28.874 38.495 39.242 86.273 29.195 134.534-15.604 74.96-83.433 129.367-161.282 129.367-91.191 0-165-73.797-165-165 0-35.995 11.381-70.195 32.951-98.953l57.319-77.1c2.471 22.494 21.589 40.053 44.73 40.053z"/><circle cx="285.98" cy="377" r="15"/><path d="m217.659 389.481c6.863 4.575 16.185 2.763 20.801-4.161l60-90c4.595-6.893 2.732-16.206-4.161-20.801-6.892-4.595-16.205-2.733-20.801 4.16l-60 90c-4.595 6.893-2.732 16.206 4.161 20.802z"/><circle cx="225.98" cy="287" r="15"/><path d="m135.98 332c0 66.168 53.832 120 120 120s120-53.832 120-120-53.832-120-120-120-120 53.832-120 120zm120-90c49.626 0 90 40.374 90 90s-40.374 90-90 90-90-40.374-90-90 40.374-90 90-90z"/></g></svg>