<svg xmlns="http://www.w3.org/2000/svg" width="16.414" height="14.414" viewBox="0 0 16.414 14.414">
  <g id="Frame_25_Copy" data-name="Frame 25 Copy" transform="translate(1 1)">
    <path id="Path" d="M14,3.819c-.036-.322-.078-.621-.122-.9A3.223,3.223,0,0,0,11.047.255,29.969,29.969,0,0,0,7.068,0,30.13,30.13,0,0,0,3.226.237,3.382,3.382,0,0,0,.26,3.061,20.676,20.676,0,0,0,0,6.279,18.234,18.234,0,0,0,.2,8.961a3.536,3.536,0,0,0,3.179,2.886c.424.055.877.108,1.338.153" fill="none" stroke="#585b6e" stroke-linecap="round" stroke-miterlimit="10" stroke-width="2"/>
    <path id="Path-2" data-name="Path" d="M4,0,0,4" transform="translate(10 8)" fill="none" stroke="#585b6e" stroke-linecap="round" stroke-miterlimit="10" stroke-width="2"/>
    <path id="Path-3" data-name="Path" d="M0,0,2,2" transform="translate(8 10)" fill="none" stroke="#585b6e" stroke-linecap="round" stroke-miterlimit="10" stroke-width="2"/>
    <path id="Path-4" data-name="Path" d="M13,0,7.852,3.575a2.363,2.363,0,0,1-2.7,0L0,0" transform="translate(0 2)" fill="none" stroke="#585b6e" stroke-miterlimit="10" stroke-width="2"/>
  </g>
</svg>
