<svg xmlns="http://www.w3.org/2000/svg" width="17" height="17" viewBox="0 0 17 17">
  <g id="Icons_Table_Copy" data-name="Icons / Table / Copy" transform="translate(1 1)">
    <g id="Copy">
      <path id="Path" d="M11.746,12A30.7,30.7,0,0,0,12,8a29.445,29.445,0,0,0-.434-5.166,2.939,2.939,0,0,0-2.4-2.4A29.447,29.447,0,0,0,4,0,30.691,30.691,0,0,0,0,.254" transform="translate(3)" fill="none" stroke="#101336" stroke-linecap="round" stroke-miterlimit="10" stroke-width="2" stroke-dasharray="1 4"/>
      <path id="Path-2" data-name="Path" d="M.284,1.942A1.966,1.966,0,0,1,1.933.262,23.477,23.477,0,0,1,5.5,0,23.361,23.361,0,0,1,9.169.278a1.839,1.839,0,0,1,1.553,1.553A23.364,23.364,0,0,1,11,5.5a23.364,23.364,0,0,1-.278,3.669,1.839,1.839,0,0,1-1.553,1.553A23.365,23.365,0,0,1,5.5,11a23.475,23.475,0,0,1-3.567-.262A1.966,1.966,0,0,1,.284,9.058,23.179,23.179,0,0,1,0,5.5,23.179,23.179,0,0,1,.284,1.942Z" transform="translate(0 4)" fill="rgba(78,82,135,0.1)" stroke="#101336" stroke-miterlimit="10" stroke-width="2"/>
    </g>
  </g>
</svg>
