<?xml version="1.0" standalone="no"?>
<!DOCTYPE svg PUBLIC "-//W3C//DTD SVG 20010904//EN"
 "http://www.w3.org/TR/2001/REC-SVG-20010904/DTD/svg10.dtd">
<svg version="1.0" xmlns="http://www.w3.org/2000/svg"
 width="200.000000pt" height="200.000000pt" viewBox="0 0 200.000000 200.000000"
 preserveAspectRatio="xMidYMid meet">
<metadata>
Created by potrace 1.16, written by Peter Selinger 2001-2019
</metadata>
<g transform="translate(0.000000,200.000000) scale(0.100000,-0.100000)"
fill="#000000" stroke="none">
<path d="M1260 1555 l0 -235 100 0 100 0 0 70 0 70 190 0 190 0 0 95 0 95
-190 0 -190 0 0 70 0 70 -100 0 -100 0 0 -235z"/>
<path d="M180 1555 l0 -95 475 0 475 0 0 95 0 95 -475 0 -475 0 0 -95z"/>
<path d="M560 1195 l0 -75 -190 0 -190 0 0 -100 0 -100 190 0 190 0 0 -75 0
-75 100 0 100 0 0 250 0 250 -100 0 -100 0 0 -75z"/>
<path d="M900 1020 l0 -100 470 0 470 0 0 100 0 100 -470 0 -470 0 0 -100z"/>
<path d="M910 460 l0 -250 100 0 100 0 0 75 0 75 365 0 365 0 0 100 0 100
-365 0 -365 0 0 75 0 75 -100 0 -100 0 0 -250z"/>
<path d="M180 460 l0 -100 295 0 295 0 0 100 0 100 -295 0 -295 0 0 -100z"/>
</g>
</svg>
