<svg xmlns="http://www.w3.org/2000/svg" xmlns:xlink="http://www.w3.org/1999/xlink" width="24.409" height="24.409" viewBox="0 0 24.409 24.409">
  <defs>
    <path id="path-1" fill-rule="evenodd" d="M13.1090551 6.6532426l-.773625-1.27203c-.08715-.14325-.182025-.28749-.33495-.35637-.301125-.1356975-1.034475-.3202125-2.79585-.3202125-1.051425 0-1.807755.0657525-2.3419725.147615-.7746075.1187025-1.313385.70602-1.5044925 1.4660025-.2889 1.1488725-.653535 3.1233525-.653535 5.7710325 0 2.227125.2211525 3.977925.4387875 5.161725.207045 1.126125 1.0561875 1.9713 2.1885525 2.141175 1.073835.161175 2.6688675.31245 4.87266.31245 2.2449 0 3.906675-.156975 5.031675-.32145 1.162575-.16995 2.0445-1.029375 2.21715-2.191575.134175-.903225.251175-2.14245.251175-3.71775 0-1.67505-.1323-2.863305-.2769-3.661695-.1536-.8485725-.91365-1.35753-1.776075-1.35753h-1.338675c-1.3092 0-2.5236-.6828-3.203925-1.8013875z"/>
  </defs>
  <g>
    <use fill="rgb(16,19,55)" fill-opacity=".1" xlink:href="#path-1"/>
    <use fill-opacity="0" stroke="rgb(16,19,55)" stroke-linecap="butt" stroke-linejoin="miter" stroke-width="2" xlink:href="#path-1"/>
  </g>
</svg>
