<svg xmlns="http://www.w3.org/2000/svg" width="22" height="22" viewBox="0 0 22 22">
  <path id="Path_Copy_4" data-name="Path Copy 4" d="M11.206,2.6,10.174.9A1.1,1.1,0,0,0,9.728.427,10.084,10.084,0,0,0,6,0,20.883,20.883,0,0,0,2.877.2,2.48,2.48,0,0,0,.871,2.151,31.855,31.855,0,0,0,0,9.846a38.3,38.3,0,0,0,.585,6.882A3.464,3.464,0,0,0,3.5,19.583,44.169,44.169,0,0,0,10,20a46.728,46.728,0,0,0,6.709-.429,3.432,3.432,0,0,0,2.956-2.922A33.878,33.878,0,0,0,20,11.692a27.669,27.669,0,0,0-.369-4.882A2.286,2.286,0,0,0,17.263,5H15.478A5,5,0,0,1,11.206,2.6Z" transform="translate(1 1)" fill="rgba(16,19,55,0.1)" stroke="#101337" stroke-miterlimit="10" stroke-width="2"/>
</svg>
