<svg width="20" height="20" xmlns="http://www.w3.org/2000/svg">
 <title>Group 3</title>

 <g>
  <title>background</title>
  <rect fill="none" id="canvas_background" height="402" width="582" y="-1" x="-1"/>
 </g>
 <g>
  <title>Layer 1</title>
  <path fill="#0000ff" fill-rule="nonzero" id="Combined-Shape" d="m10,0c-5.52285,0 -10,4.47715 -10,10c0,5.52283 4.47715,9.99998 10,9.99998c5.52283,0 9.99998,-4.47715 9.99998,-9.99998c0,-5.52285 -4.47715,-10 -9.99998,-10zm-0.00002,1.99998c4.41829,0 8.00002,3.58173 8.00002,8c0,4.41829 -3.58173,8.00002 -8.00002,8.00002c-4.41827,0 -8,-3.58173 -8,-8.00002c0,-4.41827 3.58173,-8 8,-8z"/>
  <path fill="#0000ff" fill-rule="nonzero" id="?" d="m10.36,11.738c0.23333,0 0.41067,-0.049 0.532,-0.147c0.12133,-0.098 0.20067,-0.22167 0.238,-0.371c0.056,-0.252 0.15633,-0.49 0.301,-0.714c0.14467,-0.224 0.43633,-0.49467 0.875,-0.812c0.49467,-0.364 0.83767,-0.72567 1.029,-1.085c0.19133,-0.35933 0.287,-0.749 0.287,-1.169c0,-0.48533 -0.13533,-0.91467 -0.406,-1.288c-0.27067,-0.37333 -0.651,-0.66267 -1.141,-0.868c-0.49,-0.20533 -1.057,-0.308 -1.701,-0.308c-0.37333,0 -0.77467,0.04433 -1.204,0.133c-0.42933,0.08867 -0.83533,0.22633 -1.218,0.413c-0.29867,0.14 -0.511,0.31733 -0.637,0.532c-0.126,0.21467 -0.18433,0.434 -0.175,0.658c0.00933,0.224 0.07467,0.42 0.196,0.588c0.12133,0.168 0.28933,0.27533 0.504,0.322c0.21467,0.04667 0.462,0 0.742,-0.14c0.24267,-0.13067 0.49467,-0.22867 0.756,-0.294c0.26133,-0.06533 0.54133,-0.098 0.84,-0.098c0.616,0 0.924,0.21933 0.924,0.658c0,0.17733 -0.04433,0.34533 -0.133,0.504c-0.08867,0.15867 -0.245,0.35467 -0.469,0.588c-0.336,0.34533 -0.574,0.679 -0.714,1.001c-0.14,0.322 -0.21,0.665 -0.21,1.029c0,0.26133 0.07,0.47133 0.21,0.63c0.14,0.15867 0.33133,0.238 0.574,0.238zm-0.042,3.346c0.42933,0 0.76533,-0.12833 1.008,-0.385c0.24267,-0.25667 0.364,-0.58567 0.364,-0.987c0,-0.392 -0.12133,-0.714 -0.364,-0.966c-0.24267,-0.252 -0.57867,-0.378 -1.008,-0.378c-0.42933,0 -0.76767,0.126 -1.015,0.378c-0.24733,0.252 -0.371,0.574 -0.371,0.966c0,0.40133 0.12367,0.73033 0.371,0.987c0.24733,0.25667 0.58567,0.385 1.015,0.385z"/>
 </g>
</svg>