<?xml version="1.0" encoding="UTF-8"?>
<svg width="20px" height="20px" viewBox="0 0 20 20" version="1.1" xmlns="http://www.w3.org/2000/svg" xmlns:xlink="http://www.w3.org/1999/xlink">
    <title>icon-help</title>
    <g id="Symbols" stroke="none" stroke-width="1" fill="none" fill-rule="evenodd">
        <g id="Top-Bar" transform="translate(-1114.000000, -22.000000)" fill="#0000FF">
            <g id="Group" transform="translate(1112.000000, 20.000000)">
                <circle id="Oval-Copy-12" fill-opacity="0.08" cx="11.9999904" cy="11.9999904" r="9"></circle>
                <path d="M12,2 C17.5228326,2 21.9999808,6.47714821 21.9999808,12 C21.9999808,17.5228326 17.5228326,21.9999808 12,21.9999808 C6.47714821,21.9999808 2,17.5228326 2,12 C2,6.47714821 6.47714821,2 12,2 Z M14.7574353,16.171548 C13.9669936,16.6950897 13.0191017,16.9999808 12,16.9999808 C10.9808912,16.9999808 10.0329948,16.6950897 9.2425503,16.171548 L7.09545989,18.320726 C8.44996187,19.3732635 10.1517811,20 11.9999808,20 C13.8486466,20 15.550856,19.3729529 16.9055242,18.3199434 Z M5.68003602,7.09445289 C4.62702797,8.44911835 3.99998082,10.1513231 3.99998082,11.9999808 C3.99998082,13.8486466 4.62702797,15.550856 5.68003602,16.9055242 L7.82843379,14.7574353 C7.30489107,13.9669936 7,13.0191017 7,12 C7,10.9808912 7.30489107,10.0329948 7.82843379,9.2425503 Z M18.320726,7.09545989 L16.171548,9.2425503 C16.6950897,10.0329948 16.9999808,10.9808912 16.9999808,12 C16.9999808,13.0191017 16.6950897,13.9669936 16.171548,14.7574353 L18.320726,16.9045172 C19.3732635,15.5500125 20,13.8481886 20,11.9999808 C20,10.1517811 19.3732635,8.44996187 18.320726,7.09545989 Z M11.9999808,8.99998082 C10.3431309,8.99998082 8.99998082,10.3431309 8.99998082,11.9999808 C8.99998082,13.65685 10.3431309,15 11.9999808,15 C13.65685,15 15,13.65685 15,11.9999808 C15,10.3431309 13.65685,8.99998082 11.9999808,8.99998082 Z M11.9999808,3.99998082 C10.1517811,3.99998082 8.44996187,4.62671728 7.09545989,5.67925339 L9.2425503,7.82843379 C10.0329948,7.30489107 10.9808912,7 12,7 C13.0191017,7 13.9669936,7.30489107 14.7574353,7.82843379 L16.9055242,5.68003602 C15.550856,4.62702797 13.8486466,3.99998082 11.9999808,3.99998082 Z" id="Combined-Shape" fill-rule="nonzero"></path>
            </g>
        </g>
    </g>
</svg>