<svg xmlns="http://www.w3.org/2000/svg" width="20" height="20" viewBox="0 0 20 20">
  <g id="Image" transform="translate(1 0.553)">
    <path id="Path" d="M.308,4.381A4.653,4.653,0,0,1,4.366.278,37.58,37.58,0,0,1,9,0a37.385,37.385,0,0,1,4.845.305,4.4,4.4,0,0,1,3.85,3.85A37.37,37.37,0,0,1,18,9a37.37,37.37,0,0,1-.305,4.845,4.4,4.4,0,0,1-3.85,3.85A37.37,37.37,0,0,1,9,18a37.574,37.574,0,0,1-4.634-.278,4.653,4.653,0,0,1-4.058-4.1A35.8,35.8,0,0,1,0,9,35.8,35.8,0,0,1,.308,4.381Z" transform="translate(0 0.447)" fill="rgba(78,82,135,0.1)" stroke="#101336" stroke-miterlimit="10" stroke-width="2"/>
    <path id="Path-2" data-name="Path" d="M0,5,5,0l6.5,6.5" transform="translate(0.5 6)" fill="none" stroke="#101336" stroke-linecap="round" stroke-miterlimit="10" stroke-width="2"/>
    <path id="Path-3" data-name="Path" d="M0,2.5,2.5,0l5,5" transform="translate(9.5 7)" fill="none" stroke="#101336" stroke-linecap="round" stroke-miterlimit="10" stroke-width="2"/>
  </g>
</svg>
