<svg xmlns="http://www.w3.org/2000/svg" width="10.354" height="15.583" viewBox="0 0 10.354 15.583">
  <path fill="rgb(16,19,54)" fill-rule="evenodd" d="M7.67019946 1.29669076l-.6615 1.66218c-.54072 1.35879.2252 2.88508 1.6378 3.26358 1.4797.39647 2.203 2.0303 1.3288 3.28807-.6844.9847-1.589 2.1255-2.6915 3.1687-1.23496 1.1686-2.52799 2.093-3.56745 2.7519-.75353.4778-1.58071-.2476-1.27317-1.0851l.82083-2.2354c.47767-1.3009-.26429-2.7311-1.60283-3.0898-1.51631-.4063-2.18317-2.13295-1.19336-3.35137.66554-.81924 1.4973-1.75449 2.47099-2.67583 1.12334-1.06294 2.32751-2.02855 3.35068-2.79374.77491-.57953 1.73851.19773 1.38071 1.09681z"/>
</svg>
