<svg xmlns="http://www.w3.org/2000/svg" width="21" height="17" viewBox="0 0 21 17">
  <g id="Icon_assistant" transform="translate(1 1)">
    <path id="Path" d="M5.5.688h0A5.858,5.858,0,0,0,6.592.606,11.988,11.988,0,0,0,8.427.1a1.528,1.528,0,0,1,1.607.314A3.865,3.865,0,0,1,11,3.344a2.974,2.974,0,0,1-.586,1.989A2.307,2.307,0,0,1,8.546,6H2.454A2.306,2.306,0,0,1,.586,5.333,2.973,2.973,0,0,1,0,3.344,3.865,3.865,0,0,1,.966.415,1.528,1.528,0,0,1,2.573.1a11.987,11.987,0,0,0,1.834.5A5.858,5.858,0,0,0,5.5.688Z" transform="translate(0 9)" fill="none" stroke="#101336" stroke-miterlimit="10" stroke-width="2"/>
    <g id="Rectangle" transform="translate(13 7)" fill="#101336" stroke="#101336" stroke-miterlimit="10" stroke-width="1">
      <rect width="7" height="2" rx="1" stroke="none"/>
      <rect x="0.5" y="0.5" width="6" height="1" rx="0.5" fill="none"/>
    </g>
    <g id="Rectangle_Copy_15" data-name="Rectangle Copy 15" transform="translate(15.5 11.5) rotate(-90)" fill="#101336" stroke="#101336" stroke-miterlimit="10" stroke-width="1">
      <rect width="7" height="2" rx="1" stroke="none"/>
      <rect x="0.5" y="0.5" width="6" height="1" rx="0.5" fill="none"/>
    </g>
    <path id="Path_Copy" data-name="Path Copy" d="M5.975,5.974h0A3.333,3.333,0,0,1,3.5,7,3.334,3.334,0,0,1,1.026,5.975,3.332,3.332,0,0,1,0,3.5,3.333,3.333,0,0,1,1.026,1.025,3.333,3.333,0,0,1,3.5,0,3.334,3.334,0,0,1,5.974,1.025,3.334,3.334,0,0,1,7,3.5,3.333,3.333,0,0,1,5.975,5.974Z" transform="translate(2)" fill="none" stroke="#101336" stroke-miterlimit="10" stroke-width="2"/>
  </g>
</svg>
