<?xml version="1.0" encoding="UTF-8"?>
<svg width="16px" height="16px" viewBox="0 0 16 16" version="1.1" xmlns="http://www.w3.org/2000/svg" xmlns:xlink="http://www.w3.org/1999/xlink">
    <title>Icons / Table / Lunch</title>
    <g id="Icons-/-Table-/-Lunch" stroke="none" stroke-width="1" fill="none" fill-rule="evenodd">
        <g id="Meeting" transform="translate(1.000000, 0.000000)">
            <path d="M14,15 C14,13.6265 13.5566,12.437 12.6816,11.4646 C11.8067,10.4927 10.7363,10 9.5,10 C8.56807,10 7.73055,10.2799 7,10.8339" id="Path" stroke="#101336" stroke-width="2" stroke-linecap="round"></path>
            <path d="M12.6821,11.7575 C13.557,12.9244 14.0005,14.3517 14.0005,16 L9,16 C9,14.3516 8.50049,14.5 8.50049,13 C8,12 6.85623,11.115 7.15008,10.8704 C7.84468,10.292 8.63155,10 9.5005,10 C10.7367,10 11.8072,10.5913 12.6821,11.7575 Z" id="Path" fill-opacity="0.1" fill="#101336" fill-rule="nonzero"></path>
            <path d="M9,15 C9,13.6265 8.55656,12.437 7.68164,11.4646 C6.80673,10.4927 5.73625,10 4.5,10 C3.26346,10 2.19313,10.4927 1.31836,11.4648 C0.44359,12.4368 0,13.6263 0,15" id="Path" stroke="#101336" stroke-width="2" stroke-linecap="round"></path>
            <path d="M7.68164,11.7575 C8.55656,12.9244 9,14.3517 9,16 L0,16 C0,14.3516 0.44359,12.9242 1.31836,11.7577 C2.19313,10.5913 3.26346,10 4.5,10 C5.73625,10 6.80673,10.5913 7.68164,11.7575 Z" id="Path" fill-opacity="0.1" fill="#101336" fill-rule="nonzero"></path>
            <circle id="Oval" stroke="#101336" stroke-width="2" fill-opacity="0.1" fill="#101336" cx="4" cy="4" r="3"></circle>
            <circle id="Oval-Copy" stroke="#101336" stroke-width="2" fill-opacity="0.1" fill="#101336" cx="10" cy="4" r="3"></circle>
        </g>
    </g>
</svg>