<svg xmlns="http://www.w3.org/2000/svg" xmlns:xlink="http://www.w3.org/1999/xlink" width="23.409" height="23.409" viewBox="0 0 23.409 23.409">
  <defs>
    <path id="path-1" fill-rule="evenodd" d="M12.1597101 5.8836501l-.2807-.46152c-.11616-.19101-.24815-.37947-.45805-.45638-.32899-.12054-1.03105-.26112-2.51633-.26112-.70217 0-1.26333.03142-1.70843.07728-1.03936.10711-1.7672.87781-1.9922 1.89816-.24371 1.1052-.49937 2.77504-.49937 4.91687 0 1.66805.13291 3.04979.29039 4.10159.22607 1.5099 1.36286 2.6343 2.87953 2.8093.95358.11 2.21713.1968 3.83008.1968 1.64811 0 2.9595-.0907 3.9552-.2041 1.5565-.1772 2.7357-1.3252 2.9053-2.8826.0808-.7408.1395-1.6504.1395-2.72868 0-1.24903-.0788-2.20804-.1793-2.92319-.1546-1.10031-1.1264-1.76143-2.2375-1.76143-1.6869 0-3.25158-.87975-4.12812-2.32098z"/>
  </defs>
  <g>
    <g>
      <use fill="rgb(19,1,255)" fill-opacity=".1" xlink:href="#path-1"/>
      <use fill-opacity="0" stroke="rgb(19,1,255)" stroke-linecap="butt" stroke-linejoin="miter" stroke-width="2" xlink:href="#path-1"/>
    </g>
    <path fill="rgb(19,1,255)" fill-rule="evenodd" d="M9.7046301 13.58450872v-2.75975883c0-.86931603.83618786-1.40627909 1.49345674-.95901118l2.02777797 1.379885c.63835538.43438401.63835538 1.48363836-.00000986 1.91802237l-2.02776811 1.379885c-.65726888.44724554-1.49345673-.08969515-1.49345673-.95902236z"/>
  </g>
</svg>
