<?xml version="1.0" encoding="UTF-8"?>
<svg width="16px" height="16px" viewBox="0 0 16 16" version="1.1" xmlns="http://www.w3.org/2000/svg" xmlns:xlink="http://www.w3.org/1999/xlink">
    <title>Icons / Table / Message</title>
    <g id="Icons-/-Table-/-Message" stroke="none" stroke-width="1" fill="none" fill-rule="evenodd">
        <g id="Mail" transform="translate(1.000000, 2.000000)" stroke="#101336" stroke-width="2">
            <path d="M0.21508,8.98981 C0.0915,8.11432 0,7.09548 0,6 C0,4.90452 0.0915,3.88568 0.21508,3.01019 C0.42691,1.50945 1.58957,0.39109 3.11738,0.21508 C4.16799,0.09404 5.47501,0 7,0 C8.61102,0 9.9788,0.10495 11.0579,0.2358 C12.5035,0.41109 13.5865,1.43771 13.7827,2.82193 C13.9067,3.6964 14,4.76491 14,6 C14,7.23509 13.9067,8.3036 13.7827,9.1781 C13.5865,10.5623 12.5035,11.5889 11.0579,11.7642 C9.9788,11.8951 8.61102,12 7,12 C5.47501,12 4.16799,11.906 3.11738,11.7849 C1.58957,11.6089 0.42691,10.4906 0.21508,8.98981 Z" id="Path" fill-opacity="0.1" fill="#101336" fill-rule="nonzero"></path>
            <path d="M14,3 L8.48842,6.14948 C7.56612,6.6765 6.43388,6.6765 5.51158,6.14948 L0,3" id="Path"></path>
        </g>
    </g>
</svg>