<svg viewBox="1 -13 511.996 511" xmlns="http://www.w3.org/2000/svg"><path d="m156.042969 309.226562c-39.019531 0-70.761719 31.742188-70.761719 70.761719s31.742188 70.765625 70.761719 70.765625 70.765625-31.746094 70.765625-70.765625-31.746094-70.761719-70.765625-70.761719zm0 126.527344c-30.746094 0-55.761719-25.015625-55.761719-55.765625 0-30.746093 25.015625-55.761719 55.761719-55.761719 30.75 0 55.765625 25.015626 55.765625 55.761719 0 30.75-25.015625 55.765625-55.765625 55.765625zm0 0"/><path d="m156.042969 344.75c-19.429688 0-35.234375 15.808594-35.234375 35.238281 0 19.429688 15.804687 35.234375 35.234375 35.234375 19.429687 0 35.238281-15.804687 35.238281-35.234375 0-19.429687-15.808594-35.238281-35.238281-35.238281zm0 55.476562c-11.15625 0-20.234375-9.078124-20.234375-20.238281 0-11.15625 9.078125-20.234375 20.234375-20.234375 11.160156 0 20.238281 9.078125 20.238281 20.234375 0 11.160157-9.078125 20.238281-20.238281 20.238281zm0 0"/><path d="m480.195312.5h-37.773437c-4.140625 0-7.5 3.355469-7.5 7.5 0 4.140625 3.359375 7.5 7.5 7.5h37.773437c9.265626 0 16.804688 7.539062 16.804688 16.804688v266.796874h-184.914062v-22.441406c0-4.140625-3.359376-7.5-7.5-7.5h-82.839844v-25.820312c0-4.144532-3.359375-7.5-7.5-7.5h-116.40625c-4.140625 0-7.5 3.355468-7.5 7.5v25.820312h-82.839844c-4.140625 0-7.5 3.359375-7.5 7.5v202.019532c0 4.140624 3.359375 7.5 7.5 7.5h297.085938c4.140624 0 7.5-3.359376 7.5-7.5v-45.828126h95.480468c4.144532 0 7.5-3.359374 7.5-7.5 0-4.144531-3.355468-7.5-7.5-7.5h-39.558594l-8.941406-53.136718h121.128906c17.535157 0 31.804688-14.269532 31.804688-31.808594v-300.601562c0-17.539063-14.269531-31.804688-31.804688-31.804688zm-273.449218 250.339844v18.320312h-101.40625v-18.320312zm90.339844 220.339844h-282.085938v-187.019532h282.085938zm55.707031-53.328126h-40.707031v-53.136718h31.769531zm127.402343-68.136718h-168.109374v-35.613282h184.914062v18.804688c0 9.269531-7.539062 16.808594-16.804688 16.808594zm0 0"/><path d="m83.101562 339.75h-38.84375c-8.078124 0-14.648437-6.574219-14.648437-14.648438v-17.335937c0-8.078125 6.570313-14.648437 14.648437-14.648437h38.839844c8.078125 0 14.652344 6.570312 14.652344 14.652343v17.332031c0 8.074219-6.574219 14.648438-14.648438 14.648438zm-38.492187-15h38.140625v-16.632812h-38.140625zm0 0"/><path d="m54.164062 254.445312c4.140626 0 7.5-3.359374 7.5-7.5v-214.640624c0-9.265626 7.539063-16.804688 16.804688-16.804688h333.183594c4.144531 0 7.5-3.359375 7.5-7.5 0-4.144531-3.355469-7.5-7.5-7.5h-333.183594c-17.539062 0-31.804688 14.265625-31.804688 31.804688v214.640624c0 4.140626 3.355469 7.5 7.5 7.5zm0 0"/><path d="m259.035156 305.042969c-6.441406 0-11.679687 5.238281-11.679687 11.683593 0 6.441407 5.238281 11.683594 11.679687 11.683594 6.445313 0 11.683594-5.242187 11.683594-11.683594 0-6.441406-5.238281-11.683593-11.683594-11.683593zm0 12.652343c-.53125 0-.96875-.4375-.96875-.96875 0-.535156.4375-.972656.96875-.972656.535156 0 .972656.4375.972656.972656 0 .53125-.4375.96875-.972656.96875zm0 0"/></svg>