<svg width="16" height="16" xmlns="http://www.w3.org/2000/svg">
 <title>Icons / Table / Activity</title>

 <g>
  <title>background</title>
  <rect fill="none" id="canvas_background" height="402" width="582" y="-1" x="-1"/>
 </g>
 <g>
  <title>Layer 1</title>
  <path fill="#0000ff" id="Path" d="m8,16c0.75709,0 1.41593,-0.4207 1.75553,-1.041c0.26517,-0.4845 -0.20325,-0.959 -0.75553,-0.959l-2,0c-0.55228,0 -1.02072,0.4745 -0.75553,0.959c0.3396,0.6203 0.99844,1.041 1.75553,1.041z"/>
  <path fill="#000000" fill-opacity="0" stroke-width="2" stroke="#0000ff" id="Path" d="m3.81811,6.01686c-0.08533,-4.28353 2.75929,-5.01686 4.18189,-5.01686c1.4226,0 4.2672,0.73333 4.1819,5.01686c-0.0566,2.84081 1.2865,3.13556 0.6433,4.70334c-0.6431,1.5678 -2.5736,1.2542 -4.8252,1.2542c-2.25162,0 -4.1821,0.3136 -4.82523,-1.2542c-0.64313,-1.56778 0.69993,-1.86253 0.64334,-4.70334z"/>
 </g>
</svg>