<?xml version="1.0" encoding="UTF-8"?>
<svg width="16px" height="16px" viewBox="0 0 16 16" version="1.1" xmlns="http://www.w3.org/2000/svg" xmlns:xlink="http://www.w3.org/1999/xlink">
    <title>Icons / Table / Activity</title>
    <g id="Icons-/-Table-/-Activity" stroke="none" stroke-width="1" fill="none" fill-rule="evenodd">
        <g id="Activity" transform="translate(3.000000, 1.000000)" fill="#F5325B" fill-rule="nonzero">
            <path d="M5,15 C5.75709,15 6.41593,14.5793 6.75553,13.959 C7.0207,13.4745 6.55228,13 6,13 L4,13 C3.44772,13 2.97928,13.4745 3.24447,13.959 C3.58407,14.5793 4.24291,15 5,15 Z" id="Path"></path>
            <path d="M0.81811,5.01686 C0.73278,0.73333 3.5774,0 5.00000376,0 C6.4226,0 9.2672,0.73333 9.1819,5.01686 C9.1253,7.85767 10.4684,8.15242 9.8252,9.7202 C9.1821,11.288 7.2516,10.9744 5.00000376,10.9744 C2.74838,10.9744 0.8179,11.288 0.17477,9.7202 C-0.46836,8.15242 0.8747,7.85767 0.81811,5.01686 Z" id="Path" stroke="#F5325B" stroke-width="2" fill-opacity="0.1"></path>
        </g>
    </g>
</svg>