<?xml version="1.0" encoding="UTF-8"?>
<svg width="16px" height="16px" viewBox="0 0 16 16" version="1.1" xmlns="http://www.w3.org/2000/svg" xmlns:xlink="http://www.w3.org/1999/xlink">
    <title>Icons / Setting / Billings</title>
    <g id="Icons-/-Setting-/-Billings" stroke="none" stroke-width="1" fill="none" fill-rule="evenodd">
        <path d="M7.68539326,16 C7.94382022,16 8.15168539,15.9181658 8.30898876,15.7544974 C8.46629213,15.5908289 8.54494382,15.3791887 8.54494382,15.1195767 L8.54494382,15.1195767 L8.54494382,14.0529101 C9.6011236,13.8948854 10.4410112,13.5054674 11.0646067,12.8846561 C11.6882022,12.2638448 12,11.50194 12,10.5989418 C12,9.85396825 11.8174157,9.26419753 11.4522472,8.82962963 C11.0870787,8.39506173 10.6460674,8.07054674 10.1292135,7.85608466 C9.61235955,7.64162257 8.94382022,7.43280423 8.12359551,7.22962963 C7.50561798,7.07160494 7.01685393,6.93051146 6.65730337,6.80634921 C6.29775281,6.68218695 6,6.50440917 5.76404494,6.27301587 C5.52808989,6.04162257 5.41011236,5.73968254 5.41011236,5.36719577 C5.41011236,4.82539683 5.61797753,4.39929453 6.03370787,4.08888889 C6.4494382,3.77848325 7.00561798,3.62328042 7.70224719,3.62328042 C8.26404494,3.62328042 8.75,3.70511464 9.16011236,3.86878307 C9.57022472,4.0324515 10.005618,4.27795414 10.4662921,4.60529101 C10.6235955,4.70687831 10.75,4.77460317 10.8455056,4.80846561 C10.9410112,4.84232804 11.0393258,4.85925926 11.1404494,4.85925926 C11.3314607,4.85925926 11.497191,4.76895944 11.6376404,4.58835979 C11.7780899,4.40776014 11.8483146,4.1989418 11.8483146,3.96190476 C11.8483146,3.6345679 11.7134831,3.36931217 11.4438202,3.16613757 C10.6235955,2.48888889 9.64606742,2.07689594 8.51123596,1.93015873 L8.51123596,1.93015873 L8.51123596,0.88042328 C8.51123596,0.620811287 8.43258427,0.409171076 8.2752809,0.245502646 C8.11797753,0.0818342152 7.91011236,0 7.65168539,0 C7.39325843,0 7.18539326,0.0818342152 7.02808989,0.245502646 C6.87078652,0.409171076 6.79213483,0.620811287 6.79213483,0.88042328 L6.79213483,0.88042328 L6.79213483,1.94708995 C5.73595506,2.10511464 4.88202247,2.50582011 4.23033708,3.14920635 C3.57865169,3.79259259 3.25280899,4.57142857 3.25280899,5.48571429 C3.25280899,6.25326279 3.44382022,6.8627866 3.8258427,7.31428571 C4.20786517,7.76578483 4.66292135,8.1015873 5.19101124,8.32169312 C5.71910112,8.54179894 6.40449438,8.75908289 7.24719101,8.97354497 C7.85393258,9.13156966 8.3258427,9.26984127 8.66292135,9.38835979 C9,9.50687831 9.28089888,9.66772487 9.50561798,9.87089947 C9.73033708,10.0740741 9.84269663,10.3393298 9.84269663,10.6666667 C9.84269663,11.2197531 9.63764045,11.6430335 9.22752809,11.9365079 C8.81741573,12.2299824 8.23595506,12.3767196 7.48314607,12.3767196 C6.93258427,12.3767196 6.40730337,12.2977072 5.90730337,12.1396825 C5.40730337,11.9816578 4.8988764,11.7333333 4.38202247,11.394709 C4.2247191,11.3044092 4.09831461,11.2395062 4.00280899,11.2 C3.90730337,11.1604938 3.80337079,11.1407407 3.69101124,11.1407407 C3.51123596,11.1407407 3.3511236,11.2310406 3.21067416,11.4116402 C3.07022472,11.5922399 3,11.8010582 3,12.0380952 C3,12.2186949 3.02808989,12.3710758 3.08426966,12.4952381 C3.14044944,12.6194004 3.24157303,12.7322751 3.38764045,12.8338624 C3.8258427,13.1837743 4.34831461,13.4659612 4.95505618,13.6804233 C5.56179775,13.8948854 6.18539326,14.0303351 6.8258427,14.0867725 L6.8258427,14.0867725 L6.8258427,15.1195767 C6.8258427,15.3791887 6.90449438,15.5908289 7.06179775,15.7544974 C7.21910112,15.9181658 7.42696629,16 7.68539326,16 Z" fill="#797B8E" fill-rule="nonzero"></path>
    </g>
</svg>