<?xml version="1.0" encoding="UTF-8"?>
<svg width="19px" height="20px" viewBox="0 0 19 20" version="1.1" xmlns="http://www.w3.org/2000/svg" xmlns:xlink="http://www.w3.org/1999/xlink">
    <title>Icons / PDF</title>
    <g id="Symbols" stroke="none" stroke-width="1" fill="none" fill-rule="evenodd">
        <g id="PDF">
            <polygon id="Rectangle" fill-opacity="0.1" fill="#101336" points="3 1 11 1 14 3.28788256 16 6 16 19 3 19"></polygon>
            <path d="M14,18 L5,18 L5,20 L14,20 L14,18 Z M4,17 L4,3 L2,3 L2,17 L4,17 Z M15,6 L15,17 L17,17 L17,6 L15,6 Z M5,2 L11,2 L11,0 L5,0 L5,2 Z M5,18 C4.44771,18 4,17.5523 4,17 L2,17 C2,18.6569 3.34315,20 5,20 L5,18 Z M14,20 C15.6569,20 17,18.6569 17,17 L15,17 C15,17.5523 14.5523,18 14,18 L14,20 Z M4,3 C4,2.44772 4.44772,2 5,2 L5,0 C3.34315,0 2,1.34315 2,3 L4,3 Z" id="Shape" fill="#101336" fill-rule="nonzero"></path>
            <rect id="Rectangle" fill="#101336" fill-rule="nonzero" x="0.703613" y="7.74072" width="17.5926" height="7.74074" rx="2"></rect>
            <path d="M17,6 L11,0 L11,5 C11,5.55228 11.4477,6 12,6 L17,6 Z" id="Path" fill="#000000" fill-rule="nonzero"></path>
        </g>
    </g>
</svg>