<svg xmlns="http://www.w3.org/2000/svg" xmlns:xlink="http://www.w3.org/1999/xlink" width="21.409" height="23.409" viewBox="0 0 21.409 23.409">
  <defs>
    <path id="path-1" fill-rule="evenodd" d="M5.0149001 15.6828301c-.17103-1.1162-.31027-2.48466-.31027-3.9782 0-1.49354.13924-2.86197.31027-3.97822.22686-1.48064 1.324-2.59664 2.76729-2.80671.84809-.12344 1.84212-.21507 2.92255-.21507 1.1504 0 2.20269.10388 3.08499.23937 1.3674.20999 2.3952 1.23716 2.6072 2.60546.1688 1.08959.3077 2.49151.3077 4.15517 0 1.66366-.1389 3.0656-.3077 4.1552-.212 1.3683-1.2398 2.3954-2.6072 2.6054-.8823.1355-1.93459.2394-3.08499.2394-1.08043 0-2.07445-.0916-2.92255-.2151-1.44329-.21-2.54043-1.326-2.76729-2.8067z"/>
  </defs>
  <g>
    <g>
      <use fill="rgb(16,19,54)" fill-opacity=".1" xlink:href="#path-1"/>
      <use fill-opacity="0" stroke="rgb(16,19,54)" stroke-linecap="butt" stroke-linejoin="miter" stroke-width="2" xlink:href="#path-1"/>
    </g>
    <path fill="none" stroke="rgb(16,19,54)" stroke-linecap="round" stroke-linejoin="miter" stroke-width="2" d="M12.7046301 8.7046301h-4"/>
  </g>
</svg>
