<svg xmlns="http://www.w3.org/2000/svg" width="15.831" height="16" viewBox="0 0 15.831 16">
  <g id="microphone" transform="translate(-0.085)">
    <path id="Path" d="M4,10A4.012,4.012,0,0,0,8,6V4A4,4,0,0,0,0,4V6A4.012,4.012,0,0,0,4,10Z" transform="translate(4)" fill="#fff"/>
    <path id="Path-2" data-name="Path" d="M15.815,1.115a.991.991,0,0,0-.8-1.1.937.937,0,0,0-1.1.8,6.114,6.114,0,0,1-6,5.2,5.936,5.936,0,0,1-5.9-5.1,1.033,1.033,0,0,0-1.2-.9.991.991,0,0,0-.8,1.1,8.061,8.061,0,0,0,6.9,6.8v2.1h2v-2.1A7.956,7.956,0,0,0,15.815,1.115Z" transform="translate(0.085 5.985)" fill="#fff"/>
  </g>
</svg>
