<?xml version="1.0" standalone="no"?>
<!DOCTYPE svg PUBLIC "-//W3C//DTD SVG 20010904//EN"
 "http://www.w3.org/TR/2001/REC-SVG-20010904/DTD/svg10.dtd">
<svg version="1.0" xmlns="http://www.w3.org/2000/svg"
 width="170.000000pt" height="170.000000pt" viewBox="0 0 170.000000 170.000000"
 preserveAspectRatio="xMidYMid meet">
<metadata>
Created by potrace 1.16, written by Peter Selinger 2001-2019
</metadata>
<g transform="translate(0.000000,170.000000) scale(0.100000,-0.100000)"
fill="#000000" stroke="none">
<path d="M550 1690 c-14 -5 -51 -14 -82 -20 -32 -6 -58 -15 -58 -20 0 -5 -22
-16 -50 -25 -27 -9 -50 -21 -50 -26 0 -4 -13 -15 -29 -24 -63 -32 -221 -213
-221 -253 0 -5 -8 -20 -19 -33 -27 -35 -41 -116 -41 -239 l0 -110 124 0 123 0
5 84 c2 47 9 90 14 98 6 7 18 34 28 59 9 26 26 55 36 64 11 10 20 22 20 27 0
8 30 38 89 87 13 12 39 26 57 33 19 7 34 15 34 19 0 10 113 30 170 31 l50 0 0
129 0 129 -87 -1 c-49 0 -99 -4 -113 -9z"/>
<path d="M930 1571 l0 -129 89 -4 c49 -2 95 -9 103 -14 7 -6 34 -18 59 -28 26
-9 55 -26 64 -36 10 -11 22 -20 27 -20 8 0 38 -30 87 -89 12 -13 26 -39 33
-57 7 -19 15 -34 19 -34 10 0 30 -113 31 -170 l0 -50 130 0 130 0 -5 98 c-5
101 -31 235 -47 240 -5 2 -16 25 -25 53 -9 27 -21 49 -26 49 -4 0 -15 13 -24
29 -32 63 -213 221 -253 221 -5 0 -20 8 -33 19 -36 27 -159 51 -265 51 l-94 0
0 -129z"/>
<path d="M670 1267 c-118 -49 -187 -113 -243 -227 -31 -63 -32 -68 -32 -195 0
-128 1 -132 34 -200 44 -90 116 -162 206 -206 68 -33 72 -34 200 -34 128 0
132 1 200 34 90 44 162 116 206 206 33 68 34 72 34 200 0 128 -1 132 -34 200
-44 90 -116 162 -206 206 -66 32 -75 34 -190 37 -106 2 -126 0 -175 -21z"/>
<path d="M0 660 c0 -156 14 -210 88 -330 85 -139 238 -256 397 -301 52 -16
199 -30 233 -24 l32 6 0 131 0 130 -27 -5 c-46 -9 -155 12 -213 40 -106 52
-192 140 -221 228 -8 22 -18 43 -23 46 -4 4 -11 48 -14 98 l-5 91 -123 0 -124
0 0 -110z"/>
<path d="M1447 763 c-3 -4 -5 -27 -5 -51 -1 -48 -21 -154 -31 -162 -4 -3 -15
-25 -26 -50 -30 -68 -120 -154 -201 -192 -58 -27 -84 -32 -161 -36 l-93 -4 0
-128 0 -127 44 -6 c173 -24 396 59 526 195 66 69 124 155 135 201 4 15 11 27
15 27 17 0 51 179 48 257 l-3 78 -122 3 c-67 1 -124 -1 -126 -5z"/>
</g>
</svg>
