<svg xmlns="http://www.w3.org/2000/svg" xmlns:xlink="http://www.w3.org/1999/xlink" width="23.409" height="23.409" viewBox="0 0 23.409 23.409">
  <defs>
    <path id="path-1" fill-rule="evenodd" d="M4.944209 15.29726344c-.13540333-1.03413333-.2395789-2.26255555-.2395789-3.59263333 0-1.33010889.10417557-2.55851556.2395789-3.59259444.22239-1.69848778 1.48275555-2.98249778 3.1562611-3.19088778.99232779-.12356556 2.2041289-.21651778 3.60416-.21651778 1.47824445 0 2.74656668.10363111 3.76833334.23749444 1.5925.20864667 2.78553334 1.40166445 2.99413334 2.99415667.13393333 1.02175111.23753333 2.29012778.23753333 3.76834889 0 1.47824444-.1036 2.74656667-.23753333 3.76833333-.2086 1.5925-1.40163334 2.78553334-2.99413334 2.99413334-1.02176666.13393333-2.29008889.23753333-3.76833333.23753333-1.40003111 0-2.61183222-.09294444-3.60416-.21653333-1.67350556-.20836667-2.93387111-1.4924-3.15626111-3.19083334z"/>
  </defs>
  <g>
    <g>
      <use fill="rgb(255,255,255)" fill-opacity=".1" xlink:href="#path-1"/>
      <use fill-opacity="0" stroke="rgb(255,255,255)" stroke-linecap="butt" stroke-linejoin="miter" stroke-width="2" xlink:href="#path-1"/>
    </g>
    <path fill="none" stroke="rgb(255,255,255)" stroke-linecap="round" stroke-linejoin="miter" stroke-width="2" d="M8.87620298 11.70463567l2.22767645-.00378247 3.4291778.00377135"/>
  </g>
</svg>
