<?xml version="1.0" encoding="UTF-8"?>
<svg width="16px" height="16px" viewBox="0 0 16 16" version="1.1" xmlns="http://www.w3.org/2000/svg" xmlns:xlink="http://www.w3.org/1999/xlink">
    <title>Icons / Profile / Security</title>
    <g id="Icons-/-Profile-/-Security" stroke="none" stroke-width="1" fill="none" fill-rule="evenodd">
        <g transform="translate(1.000000, 1.000000)" id="Path" stroke="#797B8F" stroke-width="2">
            <path d="M1.57564,1.81156 C2.57358,2.22511 3.55145,2.26241 4.45758,1.98994 C5.34583,1.72285 6.10377,1.17756 6.72786,0.52099 C6.85374,0.38855 7.14623,0.38855 7.27212,0.52099 C7.8962,1.17756 8.65414,1.72285 9.5424,1.98994 C10.4485,2.26241 11.4264,2.22511 12.4243,1.81156 C12.5462,1.76106 12.7442,1.76215 12.9098,1.84123 C12.9841,1.87675 13.0192,1.91312 13.0305,1.92821 C13.0313,1.92932 13.032,1.93029 13.0325,1.9311 C13.0662,4.28048 13.0121,6.46253 12.237,8.46204 C11.4825,10.4082 10.0051,12.2713 6.99998,13.8746 C3.99483,12.2713 2.5175,10.4082 1.76299,8.46204 C0.98782,6.46253 0.93379,4.28048 0.96744,1.9311 C0.96799,1.93029 0.96867,1.92932 0.9695,1.92821 C0.98077,1.91312 1.01581,1.87674 1.09018,1.84123 C1.25574,1.76215 1.45377,1.76106 1.57564,1.81156 Z"></path>
        </g>
    </g>
</svg>