<svg xmlns="http://www.w3.org/2000/svg" width="16" height="14" viewBox="0 0 16 14">
  <g id="Mail" transform="translate(1 1)">
    <path id="Path" d="M.215,8.99A21.507,21.507,0,0,1,0,6,21.507,21.507,0,0,1,.215,3.01a3.249,3.249,0,0,1,2.9-2.8A34.016,34.016,0,0,1,7,0a33.817,33.817,0,0,1,4.058.236,3.034,3.034,0,0,1,2.725,2.586A22.679,22.679,0,0,1,14,6a22.679,22.679,0,0,1-.217,3.178,3.034,3.034,0,0,1-2.725,2.586A33.807,33.807,0,0,1,7,12a34,34,0,0,1-3.883-.215A3.249,3.249,0,0,1,.215,8.99Z" fill="none" stroke="#585b6e" stroke-miterlimit="10" stroke-width="2"/>
    <path id="Path-2" data-name="Path" d="M14,0,8.488,3.149a3,3,0,0,1-2.977,0L0,0" transform="translate(0 3)" fill="none" stroke="#585b6e" stroke-miterlimit="10" stroke-width="2"/>
  </g>
</svg>
