<?xml version="1.0" encoding="UTF-8"?>
<svg width="20px" height="20px" viewBox="0 0 20 20" version="1.1" xmlns="http://www.w3.org/2000/svg" xmlns:xlink="http://www.w3.org/1999/xlink">
    <title>Icons / 20px / Edit Black</title>
    <g id="Icons-/-20px-/-Edit-Black" stroke="none" stroke-width="1" fill="none" fill-rule="evenodd">
        <g id="COG" transform="translate(1.000000, 1.000000)" stroke="#101336" stroke-width="2">
            <path d="M18,11.6418857 L15.8205877,15.3642857 L14.7335367,14.7454714 L14.0051232,14.3308286 L13.3265744,14.8217143 C12.902789,15.1281 12.4449401,15.3906429 11.9596333,15.6026571 L11.1860954,15.9405429 L11.1860954,16.7794714 L11.1860954,18 L6.81396932,18 L6.81396932,16.7794714 L6.81396932,15.9405429 L6.04044439,15.6026571 C5.55518939,15.3907714 5.09712037,15.1281 4.67333496,14.8217143 L3.99473434,14.3309571 L3.26642442,14.7456 L2.17937342,15.3642857 L0,11.6420143 L1.07036898,11.0326629 L1.80515485,10.6143557 L1.71364984,9.77843571 C1.68554427,9.52162714 1.67083093,9.26197714 1.67083093,8.99987143 C1.67083093,8.73801 1.68559607,8.47833429 1.71368869,8.22099857 L1.80492171,7.38527143 L1.07030423,6.96713143 L0,6.35789571 L2.17945113,2.63566286 L3.26638556,3.25443857 L3.99473434,3.66906857 L4.67337382,3.17828571 C5.09727579,2.87172 5.55522824,2.60917714 6.0404703,2.39724 L6.81405998,2.05938 L6.81405998,1.2204 L6.81405998,0 L11.1861732,0 L11.1861732,1.22049 L11.1861732,2.05940571 L11.9597628,2.39730429 C12.4450697,2.60931857 12.903048,2.87179714 13.3267039,3.17822143 L14.0053822,3.66914571 L14.7337958,3.2544 L15.8207172,2.63558571 L18,6.35772857 L16.9296569,6.96699 L16.194897,7.38529714 L16.2864667,8.22124286 C16.3144428,8.47767857 16.3292079,8.73732857 16.3292079,8.99969143 C16.3292079,9.26179714 16.3144428,9.52157571 16.2863372,9.77864143 L16.195156,10.6142657 L16.9296569,11.0324443 L18,11.6418857 Z" id="Shape" fill-opacity="0.1" fill="#101336" fill-rule="nonzero" stroke-linejoin="round"></path>
            <circle id="Oval" fill="#FFFFFF" cx="9" cy="9" r="2"></circle>
        </g>
    </g>
</svg>