<?xml version="1.0" encoding="UTF-8"?>
<svg width="16px" height="14px" viewBox="0 0 16 14" version="1.1" xmlns="http://www.w3.org/2000/svg" xmlns:xlink="http://www.w3.org/1999/xlink">
    <title>Icons / Table / Share</title>
    <g id="Icons-/-Table-/-Share" stroke="none" stroke-width="1" fill="none" fill-rule="evenodd">
        <g id="Share" fill="#101336" fill-rule="nonzero">
            <path d="M8.00017,3 C8.00017,3.55228 7.55095,3.99455 7.00048,4.03937 C2.44865,4.40994 0.09966,7.39682 1.50025,13 C2.62301,10.006 5.70662,9.81326 7.18664,9.90569 C7.6624,9.9354 8.00017,10.3431 8.00017,10.8198 L8.00017,11.7962 C8.00017,12.6554 9.0121,13.1146 9.6587,12.5488 L14.28,8.50515 C15.1907,7.70833 15.1907,6.29167 14.28,5.49485 L9.6587,1.45119 C9.0121,0.88543 8.00017,1.34461 8.00017,2.20377 L8.00017,3 Z" id="Path" fill-opacity="0.1"></path>
            <path d="M1.50025,13 L0.5301,13.2425 C0.63626,13.6672 1.00631,13.9735 1.44337,13.9984 C1.88042,14.0233 2.28287,13.761 2.43658,13.3511 L1.50025,13 Z M7.18664,9.90569 L7.12431,10.9037 L7.18664,9.90569 Z M6.91934,3.04266 C4.4494,3.24375 2.38655,4.17558 1.18244,6.00838 C-0.010483,7.82416 -0.206957,10.2938 0.5301,13.2425 L2.4704,12.7575 C1.80687,10.103 2.08459,8.27764 2.85398,7.10654 C3.61218,5.95246 4.99974,5.20556 7.08163,5.03607 L6.91934,3.04266 Z M2.43658,13.3511 C2.87892,12.1715 3.68389,11.5603 4.56044,11.2318 C5.4707,10.8906 6.4527,10.8618 7.12431,10.9037 L7.24898,8.90764 C6.44056,8.85715 5.14075,8.87845 3.85851,9.35904 C2.54255,9.85227 1.24434,10.8344 0.56392,12.6489 L2.43658,13.3511 Z M7.00017,10.8198 L7.00017,11.7962 L9.0002,11.7962 L9.0002,10.8198 L7.00017,10.8198 Z M10.3172,13.3014 L14.9385,9.25773 L13.6215,7.75257 L9.0002,11.7962 L10.3172,13.3014 Z M14.9385,4.74227 L10.3172,0.698614 L9.0002,2.20377 L13.6215,6.24742 L14.9385,4.74227 Z M7.00017,2.20377 L7.00017,3 L9.0002,3 L9.0002,2.20377 L7.00017,2.20377 Z M14.9385,9.25773 C16.3045,8.06249 16.3045,5.9375 14.9385,4.74227 L13.6215,6.24742 C14.0768,6.64584 14.0768,7.35416 13.6215,7.75257 L14.9385,9.25773 Z M7.00017,11.7962 C7.00017,13.5145 9.024,14.4329 10.3172,13.3014 L9.0002,11.7962 L7.00017,11.7962 Z M7.12431,10.9037 C7.10678,10.9027 7.08485,10.8974 7.06316,10.8864 C7.0423,10.8758 7.02738,10.863 7.01775,10.8519 C6.99933,10.8308 7.00016413,10.8171 7.00016413,10.8198 L9.0002,10.8198 C9.0002,9.88529 8.31914,8.97447 7.24898,8.90764 L7.12431,10.9037 Z M10.3172,0.698614 C9.024,-0.43291 7.00017,0.485456 7.00017,2.20377 L9.0002,2.20377 L9.0002,2.20377 L10.3172,0.698614 Z M7.08163,5.03607 C8.09712,4.9534 9.0002,4.12566 9.0002,3 L7.00017,3 C7.00017,3.00103 7.00009,3.00094 7.00025,3.00018 C7.00039,2.9995 7.00055,2.99915 7.00047,2.99933 C7.00031,2.99971 6.99833,3.00413 6.9918,3.01082 C6.97724,3.0257 6.95158,3.04004 6.91934,3.04266 L7.08163,5.03607 Z" id="Shape"></path>
        </g>
    </g>
</svg>