<svg xmlns="http://www.w3.org/2000/svg" width="32" height="54" viewBox="0 0 32 54">
  <g>
    <g opacity=".714">
      <path fill="rgb(16,19,54)" fill-rule="evenodd" d="M3 0h26c1.65574507 0 3 1.34425493 3 3v26c0 1.65574507-1.34425493 3-3 3H3c-1.65574507 0-3-1.34425493-3-3V3c0-1.65574507 1.34425493-3 3-3z"/>
    </g>
    <path fill="rgb(16,19,54)" fill-opacity=".1" fill-rule="evenodd" d="M2.5 40h27c1.37978756 0 2.5 1.12021244 2.5 2.5S30.87978756 45 29.5 45h-27C1.12021244 45 0 43.87978756 0 42.5S1.12021244 40 2.5 40z"/>
    <path fill="rgb(16,19,54)" fill-opacity=".1" fill-rule="evenodd" d="M2.5 49h27c1.37978756 0 2.5 1.12021244 2.5 2.5S30.87978756 54 29.5 54h-27C1.12021244 54 0 52.87978756 0 51.5S1.12021244 49 2.5 49z"/>
  </g>
</svg>
