<svg xmlns="http://www.w3.org/2000/svg" width="72" height="32" viewBox="0 0 72 32">
  <g>
    <g opacity=".714">
      <path fill="rgb(16,19,54)" fill-rule="evenodd" d="M3 0h26c1.65574507 0 3 1.34425493 3 3v26c0 1.65574507-1.34425493 3-3 3H3c-1.65574507 0-3-1.34425493-3-3V3c0-1.65574507 1.34425493-3 3-3z"/>
    </g>
    <path fill="rgb(16,19,54)" fill-opacity=".1" fill-rule="evenodd" d="M42.5 0h27C70.87978756 0 72 1.12021244 72 2.5S70.87978756 5 69.5 5h-27C41.12021244 5 40 3.87978756 40 2.5S41.12021244 0 42.5 0z"/>
    <path fill="rgb(16,19,54)" fill-opacity=".1" fill-rule="evenodd" d="M42.5 9h27c1.37978756 0 2.5 1.12021244 2.5 2.5S70.87978756 14 69.5 14h-27c-1.37978756 0-2.5-1.12021244-2.5-2.5S41.12021244 9 42.5 9z"/>
  </g>
</svg>
