<svg id="Group_12" data-name="Group 12" xmlns="http://www.w3.org/2000/svg" width="32" height="54" viewBox="0 0 32 54">
  <g id="Rectangle_Copy_73" data-name="Rectangle Copy 73" transform="translate(0 22)" fill="#101336" opacity="0.71">
    <path d="M 29 31 L 3 31 C 1.897199988365173 31 1 30.1028003692627 1 29 L 1 3 C 1 1.897199988365173 1.897199988365173 1 3 1 L 29 1 C 30.1028003692627 1 31 1.897199988365173 31 3 L 31 29 C 31 30.1028003692627 30.1028003692627 31 29 31 Z" stroke="none"/>
    <path d="M 3 2 C 2.448600769042969 2 2 2.448600769042969 2 3 L 2 29 C 2 29.55139923095703 2.448600769042969 30 3 30 L 29 30 C 29.55139923095703 30 30 29.55139923095703 30 29 L 30 3 C 30 2.448600769042969 29.55139923095703 2 29 2 L 3 2 M 3 0 L 29 0 C 30.65685081481934 0 32 1.3431396484375 32 3 L 32 29 C 32 30.65685081481934 30.65685081481934 32 29 32 L 3 32 C 1.3431396484375 32 0 30.65685081481934 0 29 L 0 3 C 0 1.3431396484375 1.3431396484375 0 3 0 Z" stroke="none" fill="#101336"/>
  </g>
  <rect id="Rectangle_Copy_77" data-name="Rectangle Copy 77" width="32" height="5" rx="2.5" fill="rgba(16,19,54,0.1)"/>
  <rect id="Rectangle_Copy_78" data-name="Rectangle Copy 78" width="32" height="5" rx="2.5" transform="translate(0 9)" fill="rgba(16,19,54,0.1)"/>
</svg>
