<svg xmlns="http://www.w3.org/2000/svg" width="32" height="54" viewBox="0 0 32 54">
  <g>
    <path fill="rgb(255,255,255)" fill-rule="evenodd" d="M3 22h26c1.65574507 0 3 1.34425493 3 3v26c0 1.65574507-1.34425493 3-3 3H3c-1.65574507 0-3-1.34425493-3-3V25c0-1.65574507 1.34425493-3 3-3z"/>
    <path fill="rgb(255,255,255)" fill-rule="evenodd" d="M2.5 0h27C30.87978756 0 32 1.12021244 32 2.5S30.87978756 5 29.5 5h-27C1.12021244 5 0 3.87978756 0 2.5S1.12021244 0 2.5 0z"/>
    <path fill="rgb(255,255,255)" fill-rule="evenodd" d="M2.5 9h27c1.37978756 0 2.5 1.12021244 2.5 2.5S30.87978756 14 29.5 14h-27C1.12021244 14 0 12.87978756 0 11.5S1.12021244 9 2.5 9z"/>
  </g>
</svg>
