<svg xmlns="http://www.w3.org/2000/svg" xmlns:xlink="http://www.w3.org/1999/xlink" width="18" height="16.88" viewBox="0 0 18 16.88">
  <defs>
    <clipPath id="clip-path">
      <path id="Path" d="M0,3A3,3,0,0,1,3,0H13a3,3,0,0,1,3,3V9.966a3,3,0,0,1-3,3H11.765L8.475,14.743a1,1,0,0,1-.951,0L4.235,12.966H3a3,3,0,0,1-3-3Z" fill="none" stroke="#101336" stroke-miterlimit="10" stroke-width="2"/>
    </clipPath>
  </defs>
  <g id="icon_sms" transform="translate(1 1)">
    <path id="Path-2" data-name="Path" d="M0,5,4.429,0" transform="translate(1 6)" fill="none" stroke="#101336" stroke-linecap="round" stroke-miterlimit="10" stroke-width="2"/>
    <path id="Path-3" data-name="Path" d="M4.429,5,0,0" transform="translate(10.571 6)" fill="none" stroke="#101336" stroke-linecap="round" stroke-miterlimit="10" stroke-width="2"/>
    <path id="Path-4" data-name="Path" d="M0,0,6,5" transform="translate(2 2)" fill="none" stroke="#101336" stroke-linecap="round" stroke-miterlimit="10" stroke-width="2"/>
    <path id="Path-5" data-name="Path" d="M0,3A3,3,0,0,1,3,0H13a3,3,0,0,1,3,3V9.966a3,3,0,0,1-3,3H11.765L8.475,14.743a1,1,0,0,1-.951,0L4.235,12.966H3a3,3,0,0,1-3-3Z" fill="none" stroke="#101336" stroke-miterlimit="10" stroke-width="2"/>
    <g id="icon_sms-2" data-name="icon_sms" clip-path="url(#clip-path)">
      <path id="Path-6" data-name="Path" d="M6,0,0,5" transform="translate(8 2)" fill="none" stroke="#101336" stroke-linecap="round" stroke-miterlimit="10" stroke-width="2"/>
    </g>
  </g>
</svg>
