<?xml version="1.0" encoding="UTF-8"?>
<svg width="16px" height="16px" viewBox="0 0 16 16" version="1.1" xmlns="http://www.w3.org/2000/svg" xmlns:xlink="http://www.w3.org/1999/xlink">
    <title>Icons / Setting / Social</title>
    <g id="Icons-/-Setting-/-Social" stroke="none" stroke-width="1" fill="none" fill-rule="evenodd">
        <path d="M13.4141,9.41397 L13.414,9.41403 C13.0183,9.80979 12.559,10 12,10 C11.4414,10 10.982,9.8098 10.5861,9.41401 C10.1902,9.01825 10,8.5589 10,7.99991 C10,7.44112 10.1902,6.98174 10.586,6.58593 C10.9818,6.19019 11.441,6 12,6 C12.5587,6 13.0181,6.19013 13.4139,6.58578 C13.8098,6.98178 14,7.44119 14,7.99991 C14,8.55896 13.8098,9.01823 13.4141,9.41397 Z" id="Path" stroke="#797B8F" stroke-width="2"></path>
        <path d="M4.4141,14.41397 L4.414,14.41403 C4.0183,14.80979 3.559,15 3,15 C2.4414,15 1.982,14.8098 1.5861,14.41401 C1.1902,14.01825 1,13.5589 1,12.99991 C1,12.44112 1.1902,11.98174 1.586,11.58593 C1.9818,11.19019 2.441,11 3,11 C3.5587,11 4.0181,11.19013 4.4139,11.58578 C4.8098,11.98178 5,12.44119 5,12.99991 C5,13.55896 4.8098,14.01823 4.4141,14.41397 Z" id="Path-Copy-2" stroke="#797B8F" stroke-width="2"></path>
        <path d="M4.4141,4.41397 L4.414,4.41403 C4.0183,4.80979 3.559,5 3,5 C2.4414,5 1.982,4.8098 1.5861,4.41401 C1.1902,4.01825 1,3.5589 1,2.99991 C1,2.44112 1.1902,1.98174 1.586,1.58593 C1.9818,1.19019 2.441,1 3,1 C3.5587,1 4.0181,1.19013 4.4139,1.58578 C4.8098,1.98178 5,2.44119 5,2.99991 C5,3.55896 4.8098,4.01823 4.4141,4.41397 Z" id="Path-Copy" stroke="#797B8F" stroke-width="2"></path>
        <path d="M5,2.25378899 C5.51941,2.08866834 6.06965,2 6.63927,2 C9.086,2 11.1751,3.63596714 12,5.93970975 M5,13.7461804 C5.51941,13.9113419 6.06965,14 6.63927,14 C9.086,14 11.1751,12.6208963 12,10.317215" id="Shape" stroke="#797B8F" stroke-width="2"></path>
    </g>
</svg>