<?xml version="1.0" encoding="UTF-8"?>
<svg width="16px" height="16px" viewBox="0 0 16 16" version="1.1" xmlns="http://www.w3.org/2000/svg" xmlns:xlink="http://www.w3.org/1999/xlink">
    <title>Icons / Setting / Status</title>
    <g id="Icons-/-Setting-/-Status" stroke="none" stroke-width="1" fill="none" fill-rule="evenodd">
        <g transform="translate(1.000000, 1.000000)" fill-rule="nonzero">
            <path d="M0.333631083,1.95895 C0.457480917,1.10616917 1.10616917,0.457480917 1.95895,0.333631083 C3.04952667,0.175246167 4.76189583,0 7,0 C9.23813333,0 10.95045,0.175246167 12.04105,0.333631083 C12.893825,0.457480917 13.5424917,1.10616917 13.6663917,1.95895 C13.8247667,3.04952667 14,4.76189583 14,7 C14,9.23813333 13.8247667,10.95045 13.6663917,12.04105 C13.5424917,12.893825 12.893825,13.5424917 12.04105,13.6663917 C10.95045,13.8247667 9.23813333,14 7,14 C4.76189583,14 3.04952667,13.8247667 1.95895,13.6663917 C1.10616917,13.5424917 0.457480917,12.893825 0.333631083,12.04105 C0.175246167,10.95045 0,9.23813333 0,7 C0,4.76189583 0.175246167,3.04952667 0.333631083,1.95895 Z" id="Path" stroke="#66687F" stroke-width="2"></path>
            <circle id="Oval" fill="#797B8F" cx="7" cy="7" r="2"></circle>
        </g>
    </g>
</svg>