<svg id="Icons_Lifebuoy" data-name="Icons / Lifebuoy" xmlns="http://www.w3.org/2000/svg" width="24" height="24" viewBox="0 0 24 24">
  <circle id="Oval_Copy_12" data-name="Oval Copy 12" cx="9" cy="9" r="9" transform="translate(3 3)" fill="rgba(0,0,255,0.08)"/>
  <path id="Combined_Shape" data-name="Combined Shape" d="M0,10A10,10,0,1,1,10,20,10.011,10.011,0,0,1,0,10Zm10,8a7.959,7.959,0,0,0,4.9-1.683L12.756,14.17a4.991,4.991,0,0,1-5.512,0L5.1,16.317A7.961,7.961,0,0,0,10,18ZM2,10a7.959,7.959,0,0,0,1.683,4.9L5.83,12.756a4.991,4.991,0,0,1,0-5.512L3.683,5.1A7.959,7.959,0,0,0,2,10Zm14.318,4.9a7.984,7.984,0,0,0,0-9.806L14.17,7.244a4.991,4.991,0,0,1,0,5.513ZM7,10a3,3,0,1,0,3-3A3,3,0,0,0,7,10ZM7.245,5.83a4.991,4.991,0,0,1,5.511,0L14.9,3.683a7.984,7.984,0,0,0-9.806,0Z" transform="translate(2 2)" fill="blue"/>
</svg>
