<?xml version="1.0" encoding="UTF-8"?>
<svg width="16px" height="16px" viewBox="0 0 16 16" version="1.1" xmlns="http://www.w3.org/2000/svg" xmlns:xlink="http://www.w3.org/1999/xlink">
    <title>Icons / Setting / Tag Manager</title>
    <g id="Icons-/-Setting-/-Tag-Manager" stroke="none" stroke-width="1" fill="none" fill-rule="evenodd">
        <g transform="translate(7.000000, 6.000000)"></g>
        <rect id="Rectangle" stroke="#797B8F" stroke-width="2" x="1" y="3" width="14" height="11" rx="2"></rect>
        <path d="M8.66359428,6.28542765 L9.596,7.218 L10.5290944,6.28542765 C10.9096646,5.90485745 11.5266908,5.90485745 11.907261,6.28542765 C12.2878312,6.66599786 12.2878312,7.28302407 11.907261,7.66359428 L10.974,8.596 L11.907261,9.5290944 C12.2878312,9.90966461 12.2878312,10.5266908 11.907261,10.907261 C11.5266908,11.2878312 10.9096646,11.2878312 10.5290944,10.907261 L9.596,9.974 L8.66359428,10.907261 C8.28302407,11.2878312 7.66599786,11.2878312 7.28542765,10.907261 C6.90485745,10.5266908 6.90485745,9.90966461 7.28542765,9.5290944 L8.218,8.596 L7.28542765,7.66359428 C6.90485745,7.28302407 6.90485745,6.66599786 7.28542765,6.28542765 C7.66599786,5.90485745 8.28302407,5.90485745 8.66359428,6.28542765 Z" id="Combined-Shape" fill="#797B8F" fill-rule="nonzero"></path>
    </g>
</svg>