<?xml version="1.0" encoding="UTF-8"?>
<svg width="16px" height="16px" viewBox="0 0 16 16" version="1.1" xmlns="http://www.w3.org/2000/svg" xmlns:xlink="http://www.w3.org/1999/xlink">
    <title>Icons  / Table / Task</title>
    <g id="Icons--/-Table-/-Task" stroke="none" stroke-width="1" fill="none" fill-rule="evenodd">
        <g id="Task" transform="translate(1.000000, 1.000000)">
            <path d="M12.1333,1 L12.1333,1 C12.7114,1.12263 13.1743,1.5345 13.3367,2.1027 C13.6184,3.08865 14,4.86173 14,7.23321 C14,8.50138 13.8909,9.5984 13.7463,10.4955 C13.4595,12.2745 12.0348,13.5534 10.2479,13.7863 C9.3223,13.9069 8.21459,14 7.00011,14 C5.86925,14 4.83097,13.9193 3.94598,13.8108 C2.04745,13.578 0.54907,12.1827 0.24819,10.2937 C0.10634,9.4032 0,8.3599 0,7.23321 C0,5.03796 0.40368,3.15922 0.6872,2.11044 C0.84039,1.5438 1.29253,1.1218 1.86673,1 L1.86673,1" id="Path" stroke="#101336" stroke-width="2" stroke-linecap="round"></path>
            <path d="M0,7.23321 C0,8.3599 0.10634,9.4032 0.24819,10.2937 C0.54907,12.1827 2.04745,13.578 3.94598,13.8108 C4.83097,13.9193 5.86925,14 7.00011,14 C8.21459,14 9.3223,13.9069 10.2479,13.7863 C12.0348,13.5534 13.4595,12.2745 13.7463,10.4955 C13.8909,9.5984 14,8.50138 14,7.23321 C14,4.72498 13.5731,2.88615 13.289,1.94003 C13.1498,1.47651 12.8946,1.17113 12.4228,1.06362 C12.3132,1.03866 12.0767,1 11.9643,1 L2.02677,1 C1.92037,1 1.69518,1.03685 1.59142,1.06041 C1.1171,1.16808 0.86093,1.48798 0.72964,1.95631 C0.44597,2.96814 0,4.92584 0,7.23321 Z" id="Path" fill-opacity="0.1" fill="#0F123B" fill-rule="nonzero"></path>
            <g id="Group" transform="translate(4.500000, 5.500000)" stroke="#101336" stroke-linecap="round" stroke-width="2">
                <polyline id="Path" points="1.5 3.5 3.5 1.5 5 0"></polyline>
                <line x1="1.5" y1="3.5" x2="0" y2="2" id="Path"></line>
            </g>
            <line x1="9" y1="1" x2="5" y2="1" id="Path" stroke="#101336" stroke-width="3" stroke-linecap="round"></line>
        </g>
    </g>
</svg>