<svg xmlns="http://www.w3.org/2000/svg" xmlns:xlink="http://www.w3.org/1999/xlink" width="23.705" height="20" viewBox="0 0 23.705 20">
  <defs>
    <path id="path-1" fill-rule="evenodd" d="M14.27879266 11H9.72120734C7.6693323 11 6 12.25199923 6 13.7909055v5.6509134C6 19.75006084 6.33320187 20 6.74424147 20h10.51151706C17.66679813 20 18 19.7500986 18 19.4418189v-5.6509134C18 12.25199924 16.3306677 11 14.27879266 11z"/>
    <mask id="mask-2" x="-2" y="0" maskContentUnits="userSpaceOnUse" maskUnits="userSpaceOnUse">
      <rect width="23.705" height="20" x="-2" y="0" fill="black"/>
      <use fill="white" xlink:href="#path-1"/>
    </mask>
    <path id="path-3" fill-rule="evenodd" d="M12 0C9.2429854 0 7 2.24297278 7 5.00002813c0 1.8700815 1.0321648 3.50334415 2.55647684 4.3608422C10.27948158 9.76756874 11.11302117 10 12 10c.88697883 0 1.72051842-.23243125 2.44352316-.63912968C15.96789146 8.50337228 17 6.87005338 17 5.00002812 17 2.24302904 14.7570146 0 12 0z"/>
    <mask id="mask-4" x="-2" y="0" maskContentUnits="userSpaceOnUse" maskUnits="userSpaceOnUse">
      <rect width="23.705" height="20" x="-2" y="0" fill="black"/>
      <use fill="white" xlink:href="#path-3"/>
    </mask>
    <path id="path-5" fill-rule="evenodd" d="M2.5 5C1.12147424 5 0 6.12147424 0 7.5c0 .42429485.10654381.8240316.29383227 1.17438887.26682963.49928544.69804438.89785633 1.22102294 1.12297856C1.81733734 9.92756675 2.15031967 10 2.5 10 3.87852576 10 5 8.87852576 5 7.5S3.87852576 5 2.5 5z"/>
    <path id="path-6" fill-rule="evenodd" d="M7 12h2c.55191502 0 1 .44808498 1 1v6c0 .55191502-.44808498 1-1 1H1c-.55191502 0-1-.44808498-1-1 0-3.86340517 3.13659483-7 7-7z"/>
    <mask id="mask-7" x="0" y="0" maskContentUnits="userSpaceOnUse" maskUnits="userSpaceOnUse">
      <rect width="23.705" height="20" x="0" y="0" fill="black"/>
      <use fill="white" xlink:href="#path-6"/>
    </mask>
  </defs>
  <g>
    <g transform="translate(2)">
      <g>
        <use fill="rgb(229,229,255)" xlink:href="#path-1"/>
        <use fill-opacity="0" stroke="rgb(0,0,255)" stroke-linecap="butt" stroke-linejoin="miter" stroke-width="4" mask="url(#mask-2)" xlink:href="#path-1"/>
      </g>
      <g>
        <use fill="rgb(229,229,255)" xlink:href="#path-3"/>
        <use fill-opacity="0" stroke="rgb(0,0,255)" stroke-linecap="butt" stroke-linejoin="miter" stroke-width="4" mask="url(#mask-4)" xlink:href="#path-3"/>
      </g>
      <g>
        <use fill="rgb(229,229,255)" xlink:href="#path-5"/>
        <use fill-opacity="0" stroke="rgb(0,0,255)" stroke-linecap="butt" stroke-linejoin="miter" stroke-width="2" xlink:href="#path-5"/>
      </g>
    </g>
    <g>
      <use fill="rgb(229,229,255)" xlink:href="#path-6"/>
      <use fill-opacity="0" stroke="rgb(0,0,255)" stroke-linecap="butt" stroke-linejoin="miter" stroke-width="4" mask="url(#mask-7)" xlink:href="#path-6"/>
    </g>
  </g>
</svg>
