<?xml version="1.0" encoding="UTF-8"?>
<svg width="16px" height="16px" viewBox="0 0 16 16" version="1.1" xmlns="http://www.w3.org/2000/svg" xmlns:xlink="http://www.w3.org/1999/xlink">
    <title>Icons / Template</title>
    <g id="Icons-/-Template" stroke="none" stroke-width="1" fill="none" fill-rule="evenodd">
        <g id="TEmplate" transform="translate(1.000000, 1.000000)" fill="#101336" fill-rule="nonzero">
            <path d="M1.4318,11.9949 L0.449609,12.1828 L1.4318,11.9949 Z M1.05771,5.88251 L0.0601793,5.81233 L1.05771,5.88251 Z M5.87863,1.04967 L5.9406,2.04775 L5.87863,1.04967 Z M12.0013,1.40995 L11.8083,2.39116 L11.8083,2.39116 L12.0013,1.40995 Z M2.80713,14.5715 C3.34904,14.678 3.8747,14.3251 3.98122,13.7832 C4.08774,13.2413 3.73479,12.7156 3.19287,12.6091 L2.80713,14.5715 Z M12.6091,3.19287 C12.7156,3.73479 13.2413,4.08775 13.7832,3.98122 C14.3251,3.8747 14.678,3.34904 14.5715,2.80713 L12.6091,3.19287 Z M2.41399,11.8071 C2.22141,10.8002 2,9.25822 2,7.5 L0,7.5 C0,9.41837 0.240725,11.0908 0.449609,12.1828 L2.41399,11.8071 Z M2,7.5 C2,6.96151 2.02077,6.44271 2.05525,5.95269 L0.0601793,5.81233 C0.0227365,6.34454 0,6.91036 0,7.5 L2,7.5 Z M5.9406,2.04775 C6.42207,2.01785 6.94284,2 7.5,2 L7.5,0 C6.90012,0 6.338,0.0192207 5.81665,0.0515922 L5.9406,2.04775 Z M7.5,2 C9.3963,2 10.8708,2.2068 11.8083,2.39116 L12.1942,0.428745 C11.1457,0.222562 9.54132,0 7.5,0 L7.5,2 Z M0.449609,12.1828 C0.678348,13.3786 1.58505,14.3313 2.80713,14.5715 L3.19287,12.6091 C2.79866,12.5316 2.49473,12.2291 2.41399,11.8071 L0.449609,12.1828 Z M11.8083,2.39116 C12.2222,2.47254 12.5275,2.77774 12.6091,3.19287 L14.5715,2.80713 C14.3335,1.5964 13.4063,0.667079 12.1942,0.428745 L11.8083,2.39116 Z M2.05525,5.95269 C2.20633,3.80519 3.81861,2.17951 5.9406,2.04775 L5.81665,0.0515922 C2.66739,0.247139 0.279744,2.69145 0.0601793,5.81233 L2.05525,5.95269 Z" id="Shape"></path>
            <path d="M1,7.5 C1,9.46055 1.26282,11.1583 1.47137,12.1968 C1.60826,12.8785 1.96126,13.3667 2.6404,13.5156 C2.77361,13.5448 3.06867,13.5903 3.20506,13.5903 L3.36208,13.5903 C9.01097,13.5903 13.5903,9.01097 13.5903,3.36208 L13.5903,3.21448 C13.5903,3.07183 13.543,2.76453 13.5123,2.62522 C13.363,1.94801 12.89,1.59482 12.2112,1.45258 C11.2321,1.24738 9.61344,1 7.5,1 C6.92148,1 6.38003,1.01854 5.87863,1.04967 C3.243,1.21332 1.24304,3.24832 1.05771,5.88251 C1.02176,6.39363 1,6.93594 1,7.5 Z" id="Path" fill-opacity="0.1"></path>
            <path d="M14.2019,7.25168 L12.3054,5.35525 C12.1095,5.15933 11.7916,5.16009 11.5966,5.35695 L10.4328,6.53201 C10.2391,6.72754 10.2399,7.04282 10.4345,7.23742 L12.3309,9.13385 C12.5268,9.32977 12.8447,9.32901 13.0397,9.13215 L14.2036,7.95709 C14.3972,7.76156 14.3965,7.44628 14.2019,7.25168 Z" id="Path"></path>
            <path d="M9.15058,7.79923 C9.34584,7.60399 9.66241,7.604 9.85766,7.79925 L11.7715,9.71308 C11.9668,9.90835 11.9668,10.2249 11.7715,10.4202 L8.38791,13.8034 L5.97712,14.1612 C5.64514,14.2105 5.35984,13.9252 5.40912,13.5932 L5.76697,11.1824 L9.15058,7.79923 Z" id="Path"></path>
        </g>
    </g>
</svg>