<svg xmlns="http://www.w3.org/2000/svg" width="14" height="16" viewBox="0 0 14 16">
  <g id="Trash" transform="translate(1 1)">
    <path id="Path" d="M1.5,3.651A1.5,1.5,0,0,1,0,2.151V1.826A1.826,1.826,0,0,1,1.826,0h8.349A1.826,1.826,0,0,1,12,1.826v.326a1.5,1.5,0,0,1-1.5,1.5s1.125.569,1.125,3.48a5.44,5.44,0,0,1-.9,3.476,1.154,1.154,0,0,1-.538.349A13.244,13.244,0,0,1,6,11.632a13.245,13.245,0,0,1-4.192-.675,1.155,1.155,0,0,1-.538-.349,5.441,5.441,0,0,1-.9-3.476C.375,4.22,1.5,3.651,1.5,3.651Z" transform="translate(0 2.368)" fill="rgba(16,19,54,0.1)"/>
    <path id="Shape" d="M6,11.632a13.344,13.344,0,0,1-4.192-.675,1.138,1.138,0,0,1-.538-.349A5.449,5.449,0,0,1,.375,7.132c0-2.878,1.114-3.475,1.125-3.48A1.5,1.5,0,0,1,0,2.151V1.826A1.828,1.828,0,0,1,1.826,0h8.348A1.828,1.828,0,0,1,12,1.826v.325a1.5,1.5,0,0,1-1.5,1.5c.012.006,1.125.615,1.125,3.48a5.439,5.439,0,0,1-.9,3.476,1.138,1.138,0,0,1-.538.349A13.322,13.322,0,0,1,6,11.632Z" transform="translate(0 2.368)" fill="none" stroke="#101336" stroke-miterlimit="10" stroke-width="2"/>
    <path id="Path-2" data-name="Path" d="M6,3V2A2,2,0,0,0,4,0H2A2,2,0,0,0,0,2V3" transform="translate(3)" fill="none" stroke="#101336" stroke-miterlimit="10" stroke-width="2"/>
  </g>
</svg>
