<?xml version="1.0" encoding="UTF-8"?>
<svg width="16px" height="16px" viewBox="0 0 16 16" version="1.1" xmlns="http://www.w3.org/2000/svg" xmlns:xlink="http://www.w3.org/1999/xlink">
    <title>Icons / Trash / Black</title>
    <g id="Icons-/-Trash-/-Black" stroke="none" stroke-width="1" fill="none" fill-rule="evenodd">
        <g id="Trash" transform="translate(2.000000, 1.000000)" stroke="#101336" stroke-width="2">
            <path d="M1.5,6.01972 L1.5,6.01972 C0.67157,6.01972 0,5.34815 0,4.51972 L0,4.19407 C0,3.18578 0.81737,2.36841 1.82566,2.36841 L10.1743,2.36841 C11.1826,2.36841 12,3.18578 12,4.19407 L12,4.51972 C12,5.34815 11.3284,6.01972 10.5,6.01972 L10.5,6.01972 M1.5,6.01972 L10.5,6.01972 M1.5,6.01972 C1.5,6.01972 0.375,6.58882 0.375,9.5 C0.375,11.5649 0.94099,12.5673 1.27006,12.9756 C1.40777,13.1465 1.60101,13.2536 1.80847,13.3251 C2.44323,13.544 4.00502,14 6,14 C7.99498,14 9.5568,13.544 10.1915,13.3251 C10.399,13.2536 10.5922,13.1465 10.7299,12.9756 C11.059,12.5673 11.625,11.5649 11.625,9.5 C11.625,6.58882 10.5,6.01972 10.5,6.01972" id="Shape" fill-opacity="0.1" fill="#101336"></path>
            <path d="M9,3 L9,2 C9,0.89543 8.1046,0 7,0 L5,0 C3.89543,0 3,0.89543 3,2 L3,3" id="Path"></path>
        </g>
    </g>
</svg>