<?xml version="1.0" standalone="no"?>
<!DOCTYPE svg PUBLIC "-//W3C//DTD SVG 20010904//EN"
 "http://www.w3.org/TR/2001/REC-SVG-20010904/DTD/svg10.dtd">
<svg version="1.0" xmlns="http://www.w3.org/2000/svg"
 width="170.000000pt" height="170.000000pt" viewBox="0 0 170.000000 170.000000"
 preserveAspectRatio="xMidYMid meet">
<metadata>
Created by potrace 1.16, written by Peter Selinger 2001-2019
</metadata>
<g transform="translate(0.000000,170.000000) scale(0.100000,-0.100000)"
fill="#000000" stroke="none">
<path d="M751 1653 c-12 -8 -21 -12 -21 -9 0 11 -44 -30 -184 -173 -77 -79
-164 -166 -192 -193 -75 -72 -99 -125 -100 -220 -1 -43 1 -78 5 -78 3 0 17
-19 31 -41 13 -22 45 -53 71 -69 40 -27 52 -29 94 -23 40 5 47 4 39 -8 -4 -8
-9 -23 -9 -34 0 -11 -3 -24 -6 -30 -10 -16 -7 -439 2 -451 5 -6 8 -22 8 -35
-2 -29 17 -109 36 -155 17 -41 67 -92 98 -99 13 -4 122 -5 242 -3 215 3 221 4
252 27 50 37 80 114 99 251 7 46 8 435 2 481 -3 20 -9 42 -13 49 -6 10 1 12
38 7 69 -10 121 21 173 103 25 39 29 55 28 115 -1 104 -21 139 -148 262 -53
51 -96 98 -96 103 0 6 -4 8 -10 5 -5 -3 -10 -2 -10 3 0 16 -152 164 -202 198
-45 29 -56 32 -128 32 -52 0 -85 -5 -99 -15z m161 -240 c19 -16 81 -77 139
-137 57 -61 123 -129 146 -153 l42 -43 -87 0 c-106 0 -129 -11 -153 -71 -16
-42 -16 -52 -4 -100 7 -30 13 -61 14 -69 0 -8 3 -33 6 -55 11 -97 12 -365 2
-440 l-12 -80 -158 -3 c-155 -2 -162 -1 -159 29 1 3 -5 55 -12 116 -13 112
-13 132 -1 278 4 44 8 94 10 110 1 17 3 35 5 40 1 6 2 14 1 18 -1 5 5 31 14
59 12 43 13 54 1 83 -8 18 -12 36 -9 39 3 3 -10 14 -28 26 -29 18 -47 20 -122
18 -48 -2 -87 -1 -87 1 0 4 94 102 238 247 128 130 149 138 214 87z"/>
</g>
</svg>
