<svg xmlns="http://www.w3.org/2000/svg" xmlns:xlink="http://www.w3.org/1999/xlink" width="24.409" height="28.409" viewBox="0 0 24.409 28.409">
  <defs>
    <path id="path-1" fill-rule="evenodd" d="M12.2046601 16.62222632h.00677997c.3672578.00001334.82565504.00001334 1.4827561-.11014361.63595119-.10662371 1.4174465-.30860478 2.501355-.67200805.81104513-.27191247 1.57019057-.13539625 2.19193684.41841507.67379596.60009005 1.3171421 1.8268294 1.3171421 3.90490515 0 1.22409942-.30854815 2.10367506-.7988952 2.65192653-.44429734.49651958-1.18679289.8893087-2.54728472.8893087H8.05076503c-1.36047683 0-2.10291238-.39278912-2.54716471-.8893087-.49049706-.54825147-.79897021-1.4278271-.79897021-2.65192653 0-2.07807576.64334614-3.3048151 1.3170821-3.90489181.62180627-.55382466 1.38104171-.69034088 2.19201184-.41842841 1.0839235.3634166 1.86543381.56538434 2.501385.67200805.65710105.11015695 1.1154983.11015695 1.4827711.11014361h.00677996z"/>
    <path id="path-2" fill-rule="evenodd" d="M15.3863551 12.3860626l-.000225.000135c-.890325.89046-1.92375 1.3184325-3.1815 1.3184325-1.25685 0-2.2905-.42795-3.181275-1.3184775-.890775-.89046-1.318725-1.9239975-1.318725-3.181725 0-1.2572775.42795-2.2908825 1.3185-3.181455.89055-.890415 1.92375-1.3183425 3.1815-1.3183425 1.257075 0 2.290725.4277925 3.181275 1.318005.890775.891 1.318725 1.9246725 1.318725 3.1817925 0 1.2578625-.42795 2.29122-1.318275 3.181635z"/>
  </defs>
  <g>
    <g>
      <use fill="rgb(16,19,54)" fill-opacity=".1" xlink:href="#path-1"/>
      <use fill-opacity="0" stroke="rgb(16,19,54)" stroke-linecap="butt" stroke-linejoin="miter" stroke-width="2" xlink:href="#path-1"/>
    </g>
    <g>
      <use fill="rgb(16,19,54)" fill-opacity=".1" xlink:href="#path-2"/>
      <use fill-opacity="0" stroke="rgb(16,19,54)" stroke-linecap="butt" stroke-linejoin="miter" stroke-width="2" xlink:href="#path-2"/>
    </g>
  </g>
</svg>
