<?xml version="1.0" encoding="UTF-8"?>
<svg width="20px" height="20px" viewBox="0 0 20 20" version="1.1" xmlns="http://www.w3.org/2000/svg" xmlns:xlink="http://www.w3.org/1999/xlink">
    <title>Icons / Video</title>
    <g id="Icons-/-Video" stroke="none" stroke-width="1" fill="none" fill-rule="evenodd">
        <g id="Video" transform="translate(1.000000, 1.000000)" fill-rule="nonzero">
            <path d="M0.30803,4.38094757 C0.59396,2.19716878 2.21443,0.546309696 4.36608,0.278379845 C5.64193,0.119509934 7.19996,0 9,0 C10.9006,0 12.5313,0.133229926 13.845,0.30534983 C15.8925,0.573609681 17.4264,2.10748883 17.6946,4.15497769 C17.8668,5.46865696 18,7.09941606 18,9 C18,10.9006039 17.8668,12.531303 17.6946,13.8450023 C17.4264,15.8925012 15.8925,17.4264003 13.845,17.6946002 C12.5313,17.8668001 10.9006,18 9,18 C7.19996,18 5.64193,17.8805001 4.36608,17.7216002 C2.21443,17.4537003 0.59396,15.8028012 0.30803,13.6190024 C0.13394,12.2895032 0,10.710104 0,9 C0,7.28984595 0.13394,5.71046683 0.30803,4.38094757 Z" id="Path" stroke="#101336" stroke-width="2" fill-opacity="0.1" fill="#4E5287"></path>
            <path d="M6,11.4168692 L6,6.58313212 C6,5.34167378 7.36008726,4.58480727 8.40861795,5.24278072 L12.2600978,7.6596598 C13.2466341,8.27872934 13.2466341,9.72130362 12.2600978,10.3403732 L8.40861795,12.7572206 C7.36008726,13.415173 6,12.6583802 6,11.4168692 Z" id="Path" fill="#101336"></path>
        </g>
    </g>
</svg>