<?xml version="1.0" encoding="UTF-8"?>
<svg width="16px" height="16px" viewBox="0 0 16 16" version="1.1" xmlns="http://www.w3.org/2000/svg" xmlns:xlink="http://www.w3.org/1999/xlink">
    <title>Icons / Table / VideoEmail</title>
    <g id="Icons-/-Table-/-VideoEmail" stroke="none" stroke-width="1" fill="none" fill-rule="evenodd">
        <g id="VideoEmail" transform="translate(1.000000, 2.000000)" fill-rule="nonzero">
            <path d="M0.09631,4.01404 C0.29914,1.88762 1.96269,0.29331 4.13598,0.11484 C4.97555,0.0459 5.93459,0 7,0 C8.16696,0 9.2063,0.05507 10.1008,0.13516 C12.1547,0.31908 13.7043,1.78689 13.8947,3.76612 C13.9588,4.43179 14,5.1791 14,6 C14,6.8209 13.9588,7.56821 13.8947,8.23388 C13.7043,10.2131 12.1547,11.6809 10.1008,11.8648 C9.2063,11.9449 8.16696,12 7,12 C5.93459,12 4.97555,11.9541 4.13598,11.8852 C1.9627,11.7067 0.29914,10.1124 0.09631,7.98596 C0.03721,7.36629 0,6.69856 0,6 C0,5.30144 0.03721,4.63371 0.09631,4.01404 Z" id="Path" stroke="#101337" stroke-width="2" fill-opacity="0.1" fill="#4E5287"></path>
            <path d="M5,7.23381 L5,4.76619 C5,3.9889 5.84797,3.50878 6.5145,3.9087 L8.57085,5.14251 C9.2182,5.53091 9.2182,6.46909 8.57084,6.85749 L6.5145,8.0913 C5.84797,8.49122 5,8.0111 5,7.23381 Z" id="Path" fill="#101337"></path>
        </g>
    </g>
</svg>