<?xml version="1.0" encoding="UTF-8"?>
<svg width="16px" height="16px" viewBox="0 0 16 16" version="1.1" xmlns="http://www.w3.org/2000/svg" xmlns:xlink="http://www.w3.org/1999/xlink">
    <title>Icons / Webpage-16</title>
    <g id="Icons-/-Webpage-16" stroke="none" stroke-width="1" fill="none" fill-rule="evenodd">
        <g id="Web" transform="translate(1.000000, 1.000000)" stroke="#101336" stroke-width="2">
            <circle id="Oval" fill-opacity="0.1" fill="#101336" fill-rule="nonzero" transform="translate(7.000000, 7.000000) scale(-1, 1) rotate(-180.000000) translate(-7.000000, -7.000000) " cx="7" cy="7" r="7"></circle>
            <line x1="0" y1="7" x2="13" y2="7" id="Path"></line>
            <path d="M10,7.5 C10,5.52358 9.51661,3.78032 8.78926,2.56809 C8.423935,1.9592 8.026435,1.53356 7.66177,1.27649 C7.300105,1.02154 7.075975,1 7,1 C6.924025,1 6.699895,1.02154 6.33823,1.27649 C5.973565,1.53356 5.576065,1.9592 5.21074,2.56809 C4.48339,3.78032 4,5.52358 4,7.5 C4,9.4764 4.48339,11.2197 5.21074,12.4319 C5.576065,13.0408 5.973565,13.4664 6.33823,13.7235 C6.699895,13.9785 6.924025,14 7,14 C7.075975,14 7.300105,13.9785 7.66177,13.7235 C8.026435,13.4664 8.423935,13.0408 8.78926,12.4319 C9.51661,11.2197 10,9.4764 10,7.5 Z" id="Path"></path>
        </g>
    </g>
</svg>