<svg id="Icons_Note_Added" data-name="Icons / Note Added" xmlns="http://www.w3.org/2000/svg" width="20" height="20" viewBox="0 0 20 20">
  <g id="Icons_Note_" data-name="Icons / Note ">
    <g id="note">
      <path id="Path" d="M.308,13.619A35.8,35.8,0,0,1,0,9,35.8,35.8,0,0,1,.308,4.381,4.653,4.653,0,0,1,4.366.278,37.58,37.58,0,0,1,9,0a37.387,37.387,0,0,1,4.845.305,4.4,4.4,0,0,1,3.85,3.85A37.37,37.37,0,0,1,18,9a37.37,37.37,0,0,1-.305,4.845,4.4,4.4,0,0,1-3.85,3.85A37.37,37.37,0,0,1,9,18a37.574,37.574,0,0,1-4.634-.278A4.653,4.653,0,0,1,.308,13.619Z" transform="translate(1 1)" fill="#fef7e5"/>
      <path id="Shape" d="M6.027,19.786A6.531,6.531,0,0,1,.239,13.972a33.065,33.065,0,0,1,0-7.943A6.532,6.532,0,0,1,6.027.214,35.984,35.984,0,0,1,10,0a1,1,0,1,1,0,2,34.1,34.1,0,0,0-3.752.2L6.027.214,6.248,2.2A4.532,4.532,0,0,0,2.226,6.263,31.965,31.965,0,0,0,2,10a31.965,31.965,0,0,0,.226,3.737l-1.986.235,1.986-.235A4.533,4.533,0,0,0,6.248,17.8,34.12,34.12,0,0,0,10,18a33.913,33.913,0,0,0,3.963-.226,4.282,4.282,0,0,0,3.812-3.812A33.913,33.913,0,0,0,18,10h2a36,36,0,0,1-.239,4.2l-1.986-.234,1.986.234A6.281,6.281,0,0,1,14.2,19.76,36,36,0,0,1,10,20,35.984,35.984,0,0,1,6.027,19.786ZM18,10a1,1,0,1,1,2,0Z" fill="#f7b500"/>
      <path id="Path-2" data-name="Path" d="M11.779.667,11.4.292a1.009,1.009,0,0,0-1.419,0L1.411,8.8a1,1,0,0,0-.178.24L.06,11.254a.5.5,0,0,0,.678.673l2.228-1.164a1,1,0,0,0,.242-.177l8.571-8.51A.991.991,0,0,0,11.779.667Z" transform="translate(6.563 1.526)" fill="#f7b500"/>
    </g>
  </g>
</svg>
