<svg xmlns="http://www.w3.org/2000/svg" width="16" height="16.2" viewBox="0 0 16 16.2">
  <g id="Icons_Calendar_Black" data-name="Icons / Calendar Black" transform="translate(0 0.2)">
    <g id="calendar" transform="translate(1.6 0.8)">
      <path id="Path" d="M1.6,0h0A2.118,2.118,0,0,0,.476,1.221,22.612,22.612,0,0,0,0,6a23.021,23.021,0,0,0,.422,4.525,1.842,1.842,0,0,0,1.453,1.453A23.019,23.019,0,0,0,6.4,12.4a23.019,23.019,0,0,0,4.525-.422,1.842,1.842,0,0,0,1.453-1.453A23.019,23.019,0,0,0,12.8,6a22.611,22.611,0,0,0-.476-4.779A1.7,1.7,0,0,0,11.2,0h0" transform="translate(0 1.2)" fill="none" stroke="#101336" stroke-linecap="round" stroke-miterlimit="10" stroke-width="2"/>
      <path id="Path_Copy" data-name="Path Copy" d="M1.6,0A2.118,2.118,0,0,0,.476,1.221,22.612,22.612,0,0,0,0,6a23.021,23.021,0,0,0,.422,4.525,1.842,1.842,0,0,0,1.453,1.453A23.019,23.019,0,0,0,6.4,12.4a23.019,23.019,0,0,0,4.525-.422,1.842,1.842,0,0,0,1.453-1.453A23.019,23.019,0,0,0,12.8,6a22.611,22.611,0,0,0-.476-4.779A1.7,1.7,0,0,0,11.2,0Z" transform="translate(0 1.2)" fill="rgba(16,19,54,0.1)"/>
      <path id="Path-2" data-name="Path" d="M0,.5H11.2" transform="translate(0.8 5.1)" fill="none" stroke="#101336" stroke-miterlimit="10" stroke-width="2"/>
      <path id="Path-3" data-name="Path" d="M.5,2.4V0" transform="translate(3.5)" fill="none" stroke="#101336" stroke-linecap="round" stroke-miterlimit="10" stroke-width="2"/>
      <path id="Path-4" data-name="Path" d="M.5,2.4V0" transform="translate(8.3)" fill="none" stroke="#101336" stroke-linecap="round" stroke-miterlimit="10" stroke-width="2"/>
    </g>
  </g>
</svg>
