<svg xmlns="http://www.w3.org/2000/svg" width="16" height="15.052" viewBox="0 0 16 15.052">
  <g id="Frame_23" data-name="Frame 23" transform="translate(1 1.052)">
    <path id="Path" d="M.354,10.458A26.608,26.608,0,0,1,0,6.2,4.214,4.214,0,0,1,2.061,2.724L5.715.376a2.391,2.391,0,0,1,2.573,0l3.669,2.352A4.2,4.2,0,0,1,14,6.2a26.733,26.733,0,0,1-.347,4.385,2.514,2.514,0,0,1-2.139,2.078A29.124,29.124,0,0,1,7,13a29.259,29.259,0,0,1-4.392-.318A2.657,2.657,0,0,1,.354,10.458Z" fill="none" stroke="#585b6e" stroke-miterlimit="10" stroke-width="2"/>
    <path id="Path-2" data-name="Path" d="M13,0,7.913,2.7a2.731,2.731,0,0,1-2.451.028L0,0" transform="translate(0 4)" fill="none" stroke="#585b6e" stroke-miterlimit="10" stroke-width="2"/>
  </g>
</svg>
