<?xml version="1.0" encoding="UTF-8"?>
<svg width="20px" height="25px" viewBox="0 0 20 25" version="1.1" xmlns="http://www.w3.org/2000/svg" xmlns:xlink="http://www.w3.org/1999/xlink">
    <title>07DCCCFB-C07A-49DA-A544-A9232BB67BBD</title>
    <g id="Main" stroke="none" stroke-width="1" fill="none" fill-rule="evenodd">
        <g id="Timeline-Actions-Icons" transform="translate(-651.000000, -164.000000)" fill="#FFE5FD" stroke="#FF00ED" stroke-width="2">
            <g id="Icons-/-Group-Call" transform="translate(651.000000, 166.000000)">
                <g transform="translate(1.000000, 12.000000)">
                    <path d="M2.5,5 L5.5,5 C6.88071187,5 8,6.11928813 8,7.5 L8,9 C8,9.55228475 7.55228475,10 7,10 L1,10 C0.44771525,10 6.76353751e-17,9.55228475 0,9 L0,7.5 C-1.69088438e-16,6.11928813 1.11928813,5 2.5,5 Z" id="Rectangle-Copy"></path>
                    <path d="M12.5,5 L15.5,5 C16.8807119,5 18,6.11928813 18,7.5 L18,9 C18,9.55228475 17.5522847,10 17,10 L11,10 C10.4477153,10 10,9.55228475 10,9 L10,7.5 C10,6.11928813 11.1192881,5 12.5,5 Z" id="Rectangle-Copy-2"></path>
                    <path d="M7.5,5 L10.5,5 C11.8807119,5 13,6.11928813 13,7.5 L13,9.5 C13,9.77614237 12.7761424,10 12.5,10 L5.5,10 C5.22385763,10 5,9.77614237 5,9.5 L5,7.5 C5,6.11928813 6.11928813,5 7.5,5 Z" id="Rectangle"></path>
                    <circle id="Oval-Copy" cx="14" cy="3" r="3"></circle>
                    <circle id="Oval-Copy-2" cx="4" cy="3" r="3"></circle>
                    <circle id="Oval" cx="9" cy="3" r="3"></circle>
                </g>
                <g id="Icons-/-Table-/-Phone" transform="translate(10.169131, 7.243145) rotate(138.000000) translate(-10.169131, -7.243145) translate(5.669131, 2.743145)" fill-rule="nonzero" stroke-linecap="round" stroke-linejoin="round">
                    <g id="Phone" transform="translate(0.462993, 0.793862)">
                        <path d="M1.49265563,-0.666029689 C1.92266634,-0.654374367 2.34697714,-0.482890271 2.6680915,-0.158722371 L2.6680915,-0.158722371 L3.71600393,0.899161786 C3.47889143,2.1356171 3.3272313,2.41098138 3.28603538,2.65382181 C3.56822185,3.03838877 3.93702131,3.43828846 4.24114359,3.71739817 C4.55613832,4.00645539 5.01087044,4.35789302 5.44213025,4.62026638 L5.44213025,4.62026638 L5.9630284,4.18923843 L8.22730902,4.97912408 C8.73963368,5.31596055 8.98347787,5.81898611 8.99920212,6.31695825 C9.0132133,6.76067908 8.8465489,7.21529941 8.47178561,7.56481972 L8.47178561,7.56481972 L7.79466645,8.19625501 C7.51474476,8.45182026 7.067938,8.68484139 6.36842082,8.66558613 C5.99301847,8.65525262 5.51743166,8.56722604 4.93530032,8.33828712 C4.02083843,7.97863056 2.83188774,7.0451713 1.81233123,6.10951839 C1.3353419,5.67175141 0.842555994,5.19051124 0.42008982,4.71432549 C-0.0610548439,4.17201495 -0.427448709,3.65531784 -0.629261845,3.22312521 C-0.889833896,2.66510865 -0.985264043,2.2156483 -0.998347671,1.86560023 C-1.02471603,1.16012357 -0.755373301,0.727477456 -0.453517698,0.449036934 L-0.453517698,0.449036934 L0.291941746,-0.224132831 C0.630564219,-0.529916089 1.06339078,-0.677664794 1.49265563,-0.666029689 Z" id="Path"></path>
                    </g>
                </g>
            </g>
        </g>
    </g>
</svg>