<?xml version="1.0" encoding="UTF-8"?>
<svg width="22px" height="20px" viewBox="0 0 22 20" version="1.1" xmlns="http://www.w3.org/2000/svg" xmlns:xlink="http://www.w3.org/1999/xlink">
    <title>CC7DD7BF-2978-464C-92B1-0AD070FCA8FD</title>
    <g id="Main" stroke="none" stroke-width="1" fill="none" fill-rule="evenodd">
        <g id="Timeline-Actions-Icons" transform="translate(-437.000000, -109.000000)" stroke="#FF7A00" stroke-width="2">
            <g id="Icons-/-Email-Sent" transform="translate(437.000000, 109.000000)">
                <g id="Group-47" transform="translate(0.000000, 1.000000)">
                    <path d="M6.70390884,1.54246634 C9.59321968,1.1872565 12.5152918,1.18943773 15.4040691,1.54896073 L15.4040691,1.54896073 L15.9088973,1.61178917 C16.8489669,1.7287856 17.689471,2.15717349 18.3245748,2.79128358 C18.9596786,3.42539368 19.389382,4.26522597 19.5078503,5.20511122 C19.8337975,7.79106037 19.8295309,10.2944489 19.5083324,12.767 C19.389688,13.6803118 18.9731123,14.4976299 18.3581618,15.1184479 C17.7432112,15.7392659 16.9298857,16.1635839 16.0177416,16.2908956 L16.0177416,16.2908956 L15.3651188,16.3819849 C12.473436,16.7855889 9.53972808,16.785888 6.64796309,16.3828734 L6.64796309,16.3828734 L5.97632164,16.2892693 C5.06588001,16.1623844 4.25401007,15.7390345 3.64010057,15.1195164 C3.02619106,14.4999983 2.61024199,13.6843119 2.49164207,12.772754 C2.17062593,10.305427 2.16540265,7.80724491 2.4760985,5.33859702 C2.60156268,4.3417157 3.0319194,3.46847756 3.67095072,2.81538414 C4.30836162,2.16394678 5.15222532,1.73322922 6.09621329,1.617176 L6.09621329,1.617176 Z" id="Rectangle" fill="#FFF1E5"></path>
                    <path d="M20,4 L12.5643,8.54401 C11.604,9.13088 10.396,9.13088 9.43565,8.54401 L2,4" id="Path"></path>
                </g>
            </g>
        </g>
    </g>
</svg>