<?xml version="1.0" encoding="UTF-8"?>
<svg width="20px" height="20px" viewBox="0 0 20 20" version="1.1" xmlns="http://www.w3.org/2000/svg" xmlns:xlink="http://www.w3.org/1999/xlink">
    <title>7EF0F9BA-DD0B-485D-BEE3-719075D0E065</title>
    <g id="Main" stroke="none" stroke-width="1" fill="none" fill-rule="evenodd">
        <g id="Timeline-Actions-Icons" transform="translate(-438.000000, -75.000000)" stroke="#FF7A00" stroke-width="2">
            <g id="Icons-/-Email-Opened" transform="translate(438.000000, 75.000000)">
                <g id="Frame-23" transform="translate(1.000000, 1.000000)">
                    <path d="M0.45547,13.6761074 C0.21601,12.1899843 0,10.2534101 0,8.10756725 C0,6.30025934 1.03235,4.61931289 2.64936,3.56245714 L7.34729,0.491939636 C8.34994,-0.163383255 9.6517,-0.164025486 10.655,0.490289596 L15.3721,3.56659706 C16.981,4.61582508 18,6.29778922 18,8.10756725 C18,10.4733496 17.7885,12.4159509 17.5543,13.8420007 C17.3207,15.2640983 16.2431,16.3288189 14.8038,16.559627 C13.3605,16.7910278 11.3944,17 9,17 C6.69115,17 4.7805,16.8057497 3.35287,16.5843282 C1.84069,16.3498644 0.70133,15.2018513 0.45547,13.6761074 Z" id="Path" fill="#FFF1E5"></path>
                    <path d="M17,5 L10.5429,9.0357 C9.5947,9.6283 8.39557,9.6445 7.43179,9.0775 L0.5,5" id="Path"></path>
                </g>
            </g>
        </g>
    </g>
</svg>