<?xml version="1.0" encoding="UTF-8"?>
<svg width="20px" height="20px" viewBox="0 0 20 20" version="1.1" xmlns="http://www.w3.org/2000/svg" xmlns:xlink="http://www.w3.org/1999/xlink">
    <title>B2E75D51-56F0-44FC-AC1C-550DC1370E83</title>
    <g id="Main" stroke="none" stroke-width="1" fill="none" fill-rule="evenodd">
        <g id="Timeline-Actions-Icons" transform="translate(-438.000000, -39.000000)">
            <g id="Icons-/-Email-Unsubscribed" transform="translate(438.000000, 39.000000)">
                <g id="Frame-25" transform="translate(1.000000, 2.000000)">
                    <path d="M0,8.77030525 C0,10.856995 0.226431,12.5023044 0.463797,13.6538456 C0.718461,14.8892894 1.532925,15.6886541 2.684034,15.9098607 C2.88801,15.9491322 3.254202,16 3.461364,16 L14.98689,16 C15.19524,16 15.64137,15.9320789 15.84549,15.8872528 C16.74342,15.6902133 17.24166,15.0959763 17.47035,14.1354329 C17.72982,13.0456736 18,11.3029163 18,8.77030525 C18,6.75994643 17.82972,5.08136828 17.62974,3.80303768 C17.34669,1.99394764 16.04088,0.666639747 14.364,0.401659561 C13.02255,0.189671515 11.2059,0 9,0 C6.87996,0 5.119488,0.175190765 3.794805,0.377015001 C2.027457,0.646282891 0.667755,2.07835696 0.374328,3.98451481 C0.172566,5.29518835 0,6.94866393 0,8.77030525 Z" id="Path" fill="#FFF1E5" fill-rule="nonzero"></path>
                    <path d="M17.8274,5 C17.7811,4.57878 17.7281,4.18688 17.6718,3.82584 C17.3815,1.96392 15.9335,0.59215 14.0669,0.33402 C12.7589,0.15314 11.0471,0 9,0 C7.04277,0 5.39199,0.13999 4.10766,0.31037 C2.14152,0.5712 0.6334,2.04844 0.33083,4.0086 C0.14838,5.19054 0,6.63858 0,8.22218 C0,9.5615 0.10613,10.7456 0.24925,11.7334 C0.547,13.7886 2.23849,15.2372 4.2968,15.5123 C4.83697,15.5845 5.41294,15.6539 6,15.7128" id="Path" stroke="#FF7A00" stroke-width="2" stroke-linecap="round"></path>
                    <line x1="17.2427" y1="11" x2="13" y2="15.2426" id="Path" stroke="#FF7A00" stroke-width="2" stroke-linecap="round"></line>
                    <line x1="13.0005" y1="11" x2="17.2431" y2="15.2426" id="Path" stroke="#FF7A00" stroke-width="2" stroke-linecap="round"></line>
                    <path d="M17.0999,3 L10.6852,7.35569 C9.6678,8.04647 8.33197,8.04647 7.31465,7.35569 L0.8999,3" id="Path" stroke="#FF7A00" stroke-width="2"></path>
                </g>
            </g>
        </g>
    </g>
</svg>