<?xml version="1.0" encoding="UTF-8"?>
<svg width="20px" height="20px" viewBox="0 0 20 20" version="1.1" xmlns="http://www.w3.org/2000/svg" xmlns:xlink="http://www.w3.org/1999/xlink">
    <title>2EB56091-4FFE-4F0A-87F9-2A3F2E83DA11</title>
    <g id="Main" stroke="none" stroke-width="1" fill="none" fill-rule="evenodd">
        <g id="Timeline-Actions-Icons" transform="translate(-39.000000, -252.000000)">
            <g id="note" transform="translate(39.000000, 252.000000)">
                <path d="M1.30803,14.6191 C1.13394,13.2895 1,11.7101 1,10 C1,8.28986 1.13394,6.71048 1.30803,5.38095 C1.59396,3.19718 3.21443,1.54631 5.36608,1.27838 C6.64193,1.11951 8.19996,1 10,1 C11.9006,1 13.5313,1.13324 14.845,1.30535 C16.8925,1.57361 18.4264,3.10749 18.6946,5.15498 C18.8668,6.46866 19,8.09943 19,10 C19,11.9006 18.8668,13.5313 18.6946,14.845 C18.4264,16.8925 16.8925,18.4264 14.845,18.6946 C13.5313,18.8668 11.9006,19 10,19 C8.19996,19 6.64193,18.8805 5.36608,18.7216 C3.21443,18.4537 1.59396,16.8028 1.30803,14.6191 Z" id="Path" fill="#FEF7E5"></path>
                <path d="M1.2325,13.8543 L0.239447,13.9719 L1.2325,13.8543 Z M1.2325,6.14572 L2.22555,6.26338 L1.2325,6.14572 Z M6.13733,1.20812 L6.02704,0.214218 L6.02704,0.214218 L6.13733,1.20812 Z M10,2 C10.5523,2 11,1.55228 11,1 C11,0.447715 10.5523,0 10,0 L10,2 Z M20,10 C20,9.44772 19.5523,9 19,9 C18.4477,9 18,9.44772 18,10 L20,10 Z M18.7671,14.0795 L17.7739,13.9624 L17.7739,13.9624 L18.7671,14.0795 Z M14.0795,18.7671 L13.9624,17.7739 L13.9624,17.7739 L14.0795,18.7671 Z M6.13733,18.7919 L6.24761,17.798 L6.24761,17.798 L6.13733,18.7919 Z M2.22555,13.7366 C2.09481,12.6331 2,11.3626 2,10 L0,10 C0,11.4539 0.101057,12.8039 0.239447,13.9719 L2.22555,13.7366 Z M2,10 C2,8.6374 2.09481,7.36689 2.22555,6.26338 L0.239448,6.02806 C0.101057,7.19605 0,8.54614 0,10 L2,10 Z M6.24761,2.20202 C7.31149,2.08397 8.57061,2 10,2 L10,0 C8.49233,0 7.15945,0.088561 6.02704,0.214218 L6.24761,2.20202 Z M18,10 C18,11.5246 17.9045,12.8555 17.7739,13.9624 L19.7602,14.1966 C19.8992,13.0174 20,11.6081 20,10 L18,10 Z M13.9624,17.7739 C12.8555,17.9045 11.5246,18 10,18 L10,20 C11.6081,20 13.0174,19.8992 14.1966,19.7602 L13.9624,17.7739 Z M10,18 C8.57061,18 7.31149,17.916 6.24761,17.798 L6.02704,19.7858 C7.15945,19.9114 8.49233,20 10,20 L10,18 Z M0.239447,13.9719 C0.602856,17.0391 2.92339,19.4414 6.02704,19.7858 L6.24761,17.798 C4.10207,17.5599 2.48357,15.9142 2.22555,13.7366 L0.239447,13.9719 Z M17.7739,13.9624 C17.5332,16.0036 16.0036,17.5332 13.9624,17.7739 L14.1966,19.7602 C17.1569,19.4111 19.4111,17.1569 19.7602,14.1966 L17.7739,13.9624 Z M2.22555,6.26338 C2.48357,4.08578 4.10207,2.4401 6.24761,2.20202 L6.02704,0.214218 C2.9234,0.558611 0.602856,2.96093 0.239448,6.02806 L2.22555,6.26338 Z" id="Shape" fill="#F7B500" fill-rule="nonzero"></path>
                <path d="M18.3425,2.1924 L17.965,1.81765 C17.5731,1.42854 16.9376,1.42854 16.5457,1.81765 L7.97438,10.3275 C7.90307,10.3983 7.84292,10.4793 7.79595,10.5679 L6.62327,12.7798 C6.39367,13.2129 6.86485,13.6807 7.30103,13.4527 L9.52894,12.2885 C9.61818,12.2418 9.69982,12.1821 9.77113,12.1113 L18.3425,3.60151 C18.7344,3.21239 18.7344,2.58151 18.3425,2.1924 Z" id="Path" fill="#F7B500" fill-rule="nonzero"></path>
            </g>
        </g>
    </g>
</svg>