<?xml version="1.0" encoding="UTF-8"?>
<svg width="16px" height="16px" viewBox="0 0 16 16" version="1.1" xmlns="http://www.w3.org/2000/svg" xmlns:xlink="http://www.w3.org/1999/xlink">
    <title>Icons / Table / Phone</title>
    <g id="Icons-/-Table-/-Phone" stroke="none" stroke-width="1" fill="none" fill-rule="evenodd" fill-opacity="0.1" stroke-linecap="round" stroke-linejoin="round">
        <g id="Phone" transform="translate(2.000000, 2.000000)" fill="#101336" fill-rule="nonzero" stroke="#101336" stroke-width="2">
            <path d="M2.22543606,-0.499228099 C2.74533399,-0.485136409 3.25858759,-0.278227021 3.64691363,0.113791683 L3.64691363,0.113791683 L4.65384635,1.13030617 C5.01192212,1.49179364 5.18004059,1.96166773 5.16648108,2.42522345 C5.15294582,2.88795004 4.95822753,3.3470929 4.58022654,3.68761558 C4.93897102,4.84748809 5.534545,5.49560956 6.02365481,5.94449249 C6.51665182,6.3968948 7.2283576,6.94691942 7.9033003,7.35754656 C8.97836204,6.93676281 9.45044364,6.7536896 9.93283651,6.74157829 C10.4103321,6.72958994 10.8900342,6.88524622 11.2648458,7.19789088 L11.2648458,7.19789088 L12.2798929,8.04472939 C12.7518593,8.43855899 12.9824813,8.96643126 12.9990523,9.49121779 C13.0158069,10.02182 12.8142211,10.564156 12.3666537,10.9815766 L12.3666537,10.9815766 L11.3548761,11.9251296 C11.0037769,12.2456791 10.438374,12.5225712 9.56638927,12.4985685 C9.04722541,12.4842778 8.39044629,12.358513 7.58595459,12.0421249 C6.25743624,11.5196205 4.53665643,10.1541778 3.05658015,8.79590323 C2.35350528,8.15064149 1.62687181,7.4415614 1.00415057,6.73965673 C0.320606449,5.96921655 -0.203994629,5.23745524 -0.490852335,4.62313553 C-0.844729764,3.86530497 -0.980080595,3.25568516 -0.997870394,2.77972505 C-1.03000473,1.91998159 -0.713567375,1.38447755 -0.345174114,1.04464348 L-0.345174114,1.04464348 L0.773013922,0.0348898478 C1.18262576,-0.334998309 1.70628398,-0.513299572 2.22543606,-0.499228099 Z" id="Path"></path>
        </g>
    </g>
</svg>