<?xml version="1.0" encoding="UTF-8"?>
<svg width="20px" height="20px" viewBox="0 0 20 20" version="1.1" xmlns="http://www.w3.org/2000/svg" xmlns:xlink="http://www.w3.org/1999/xlink">
    <title>4BA61F48-4F49-4415-A0F7-08A4F5EBAFB5</title>
    <g id="Main" stroke="none" stroke-width="1" fill="none" fill-rule="evenodd">
        <g id="Timeline-Actions-Icons" transform="translate(-38.000000, -197.000000)">
            <g id="Icons-/-Sms-Reply" transform="translate(38.000000, 197.000000)">
                <path d="M2.03275,15.0008 C1.21734,13.0642 1,11.4374 1,8.5 C1,7.29806 1.1933,5.81998 1.42422,4.49399 C1.7073,2.86848 2.90146,1.64281 4.46544,1.40325 C5.88034,1.18652 7.75131,1 10,1 C12.3089,1 14.2195,1.19663 15.6471,1.4207 C17.1632,1.65866 18.3252,2.82431 18.61,4.37571 C18.8254,5.54899 19,6.85896 19,8 C19,9.20194 18.8067,10.68 18.5758,12.006 C18.2927,13.6315 17.0985,14.8572 15.5346,15.0968 C14.1197,15.3135 12.2487,15.5 10,15.5 C9.54823,15.5 9.09394,15.6306 8.68986,15.7921 C8.27443,15.9582 7.84448,16.1848 7.42363,16.4362 C6.58242,16.9389 5.70203,17.5869 4.93451,18.1845 C4.45296,18.5595 3.88925,18.4244 3.65563,18.0698 C3.09539,17.2193 2.54635,16.2206 2.03275,15.0008 Z" id="Path" fill="#E5F5FF"></path>
                <g transform="translate(1.000000, 1.000000)" id="Path" stroke="#00A3FF" stroke-linecap="round" stroke-width="2">
                    <path d="M18,7.12318 C18,6.1441 17.8657,5.05869 17.6954,4.07643 C17.3572,2.12424 15.8673,0.62077 13.9062,0.33811 C12.6199,0.15269 10.9643,0 9,0 C7.09518,0 5.48062,0.14359 4.21163,0.32135 C2.18499,0.60526 0.66972,2.18563 0.33426,4.20437 C0.15025,5.31178 0,6.53298 0,7.56838 C0,10.2396 0.2,11.8225 1,13.7022 C1.45208,14.7645 1.93609,15.6529 2.434,16.4202 C3.02775,17.3351 4.28668,17.4586 5.11279,16.7465 C5.79442,16.1589 6.40603,15.594 7,15"></path>
                    <line x1="5" y1="5" x2="13" y2="5"></line>
                    <line x1="5" y1="9" x2="9" y2="9"></line>
                    <line x1="14" y1="13" x2="18" y2="17"></line>
                    <line x1="13.0005" y1="12" x2="13.0005" y2="16.2427"></line>
                    <line x1="13" y1="12" x2="17.2427" y2="12"></line>
                </g>
            </g>
        </g>
    </g>
</svg>