<?xml version="1.0" encoding="UTF-8"?>
<svg width="20px" height="20px" viewBox="0 0 20 20" version="1.1" xmlns="http://www.w3.org/2000/svg" xmlns:xlink="http://www.w3.org/1999/xlink">
    <title>E0AA0BD5-68B7-4AA9-9EE3-6423C148AF1C</title>
    <g id="Main" stroke="none" stroke-width="1" fill="none" fill-rule="evenodd">
        <g id="Timeline-Actions-Icons" transform="translate(-39.000000, -162.000000)" stroke="#00A3FF" stroke-width="2">
            <g id="Icons-/-SMS-Sent" transform="translate(39.000000, 162.000000)">
                <g transform="translate(1.000000, 1.000000)" id="Text-sent">
                    <path d="M1.03275,14.0008 C0.21734,12.0642 0,10.4374 0,7.5 C0,6.29806 0.1933,4.81998 0.42422,3.49399 C0.7073,1.86848 1.90146,0.64281 3.46544,0.40325 C4.88034,0.18652 6.75131,0 9,0 C11.3089,0 13.2195,0.19663 14.6471,0.4207 C16.1632,0.65866 17.3252,1.82431 17.61,3.37571 C17.8254,4.54899 18,5.85896 18,7 C18,8.20194 17.8067,9.68 17.5758,11.006 C17.2927,12.6315 16.0985,13.8572 14.5346,14.0968 C13.1197,14.3135 11.2487,14.5 9,14.5 C8.54823,14.5 8.09394,14.6306 7.68986,14.7921 C7.27443,14.9582 6.84448,15.1848 6.42363,15.4362 C5.58242,15.9389 4.70203,16.5869 3.93451,17.1845 C3.45296,17.5595 2.88925,17.4244 2.65563,17.0698 C2.09539,16.2193 1.54635,15.2206 1.03275,14.0008 Z" id="Path" fill="#E5F5FF"></path>
                    <line x1="5" y1="5" x2="13" y2="5" id="Path" stroke-linecap="round"></line>
                    <line x1="5" y1="9" x2="13" y2="9" id="Path" stroke-linecap="round"></line>
                </g>
            </g>
        </g>
    </g>
</svg>