<?xml version="1.0" encoding="UTF-8"?>
<svg width="20px" height="20px" viewBox="0 0 20 20" version="1.1" xmlns="http://www.w3.org/2000/svg" xmlns:xlink="http://www.w3.org/1999/xlink">
    <title>439F5B63-9FFB-4D69-9336-F31917824A8B</title>
    <g id="Main" stroke="none" stroke-width="1" fill="none" fill-rule="evenodd">
        <g id="Timeline-Actions-Icons" transform="translate(-38.000000, -40.000000)">
            <g id="Icons-/-Video-Sent" transform="translate(38.000000, 40.000000)">
                <g id="video-sent" transform="translate(1.000000, 1.000000)">
                    <path d="M0.30803,13.6191 C0.13394,12.2895 0,10.7101 0,9 C0,7.28986 0.13394,5.71048 0.30803,4.38095 C0.59396,2.19718 2.21443,0.54631 4.36608,0.27838 C5.64193,0.11951 7.19996,0 9,0 C10.9006,0 12.5313,0.13324 13.845,0.30535 C15.8925,0.57361 17.4264,2.10749 17.6946,4.15498 C17.8668,5.46866 18,7.09943 18,9 C18,10.9006 17.8668,12.5313 17.6946,13.845 C17.4264,15.8925 15.8925,17.4264 13.845,17.6946 C12.5313,17.8668 10.9006,18 9,18 C7.19996,18 5.64193,17.8805 4.36608,17.7216 C2.21443,17.4537 0.59396,15.8028 0.30803,13.6191 Z" id="Path" stroke="#0000FF" stroke-width="2" fill="#E5E5FF"></path>
                    <path d="M6,11.2936 L6,6.70637 C6,5.52822 7.29593,4.80995 8.295,5.43437 L11.9648,7.728 C12.9048,8.3155 12.9048,9.6845 11.9648,10.272 L8.295,12.5656 C7.29593,13.19 6,12.4718 6,11.2936 Z" id="Path" fill="#0000FF" fill-rule="nonzero"></path>
                </g>
            </g>
        </g>
    </g>
</svg>